<?xml version="1.0" encoding="UTF-8"?><svg id="b" xmlns="http://www.w3.org/2000/svg" viewBox="0 0 358.2 598.83"><g id="c"><path d="M179.55,326.36c-18.96,21.25-48.06,32.04-76.51,28.77-13.4-1.63-24.52-5.56-34.33-11.77-4.9,5.23-10.79,9.81-17.33,12.1-11.12,4.25-28.77,2.29-31.71-11.12-1.63-6.54,1.96-13.4,9.15-13.4,7.52-.33,10.79,5.88,9.81,11.44-.98,5.56-5.23,8.17-10.14,6.87,5.23,4.25,14.71,3.27,19.94.33,5.23-2.94,8.83-7.85,11.77-12.42-41.85-36.62-36.29-106.59,14.06-130.78-1.63-5.88-3.92-11.12-7.52-13.08,7.52-4.25,9.81-22.23,9.81-32.37v-6.87c-7.19,15.04-32.69,13.08-40.87-6.87,0,0-10.79,3.6-17.66-5.23-5.89-7.19-6.54-18.96-4.58-30.08,7.52-44.79,50.68-67.35,92.85-67.03,143.53.65,140.91,205.98,73.24,281.5ZM183.15,193.29c3.92-2.29,6.54-8.17,8.17-14.71,2.94-12.42,1.96-21.25-.33-33.68-8.83-49.37-35.64-90.57-84.35-90.89-34.66,0-61.47,25.5-66.37,58.85-2.29,14.71-.65,24.52,2.29,30.73,5.89,12.75,21.25,15.04,23.21,1.96.65-5.89-4.25-12.1-11.77-8.17,6.21-9.48,17.98-9.15,22.56-.65,0-6.21,0-22.56-.98-28.77-1.63-7.85-7.52-9.81-13.08-2.94.65-13.41,11.12-16.35,18.31-11.44-.65-10.14,11.44-14.71,16.02-8.17,3.27-9.81,20.92-16.02,27.14-.33-7.85-5.88-19.62,2.94-19.62,26.16v87.62c3.27-.33,6.21,0,9.15.33,20.27,2.29,34.66,16.02,29.43,30.41,0,0,13.08,7.85,7.85,24.85-4.25,13.08-17.98,16.02-25.5,10.46-7.19-5.23-7.19-21.91,4.9-22.23,7.19-.65,11.12,6.87,8.5,12.1l-.98,1.96c4.25-1.63,5.56-7.19,5.23-12.1-1.63-11.12-14.71-24.85-38.58-22.23v48.39c0,4.9-.65,16.67,1.31,23.87,2.62,9.48,12.1,8.5,11.77.98,5.89,8.17-4.9,20.6-16.67,12.75.98,10.13-11.44,14.71-16.02,8.17-1.96,5.56-5.56,12.42-8.5,17.33,7.19,5.23,16.35,9.15,26.81,10.79,17.33,2.62,31.71-1.63,43.48-10.14,6.21-4.58,11.44-10.13,16.02-16.35,1.31.98,3.27,1.63,5.23,1.63,5.23,0,9.48-4.25,9.48-9.48s-4.25-9.48-9.48-9.48-9.48,4.25-9.48,9.48c0,.98,0,1.63.33,2.29-12.75.33-26.48-6.21-27.14-22.89,0,0,11.12,12.1,29.1-2.29,7.52-6.21,14.06-16.02,19.29-28.12,6.87-15.69,15.04-40.87,9.15-57.54-1.31-3.92-3.27-6.87-5.89-8.5ZM76.56,269.8v-37.27c-30.08,15.04-35.64,64.08-10.14,92.85,7.52-18.64,10.14-42.18,10.14-55.58Z" style="fill:#a48c71;"/><path d="M171.9,318.7c-18.96,21.25-48.06,32.04-76.51,28.77-13.4-1.63-24.52-5.56-34.33-11.77-4.9,5.23-10.79,9.81-17.33,12.1-11.12,4.25-28.77,2.29-31.71-11.12-1.63-6.54,1.96-13.4,9.15-13.4,7.52-.33,10.79,5.88,9.81,11.44-.98,5.56-5.23,8.17-10.14,6.87,5.23,4.25,14.71,3.27,19.94.33,5.23-2.94,8.83-7.85,11.77-12.42-41.85-36.62-36.29-106.59,14.06-130.78-1.63-5.88-3.92-11.12-7.52-13.08,7.52-4.25,9.81-22.23,9.81-32.37v-6.87c-7.19,15.04-32.69,13.08-40.87-6.87,0,0-10.79,3.6-17.66-5.23-5.89-7.19-6.54-18.96-4.58-30.08C13.33,59.43,56.49,36.87,98.66,37.2c143.53.65,140.91,205.98,73.24,281.5ZM175.5,185.64c3.92-2.29,6.54-8.17,8.17-14.71,2.94-12.42,1.96-21.25-.33-33.68-8.83-49.37-35.64-90.57-84.35-90.89-34.66,0-61.47,25.5-66.37,58.85-2.29,14.71-.65,24.52,2.29,30.73,5.89,12.75,21.25,15.04,23.21,1.96.65-5.89-4.25-12.1-11.77-8.17,6.21-9.48,17.98-9.15,22.56-.65,0-6.21,0-22.56-.98-28.77-1.63-7.85-7.52-9.81-13.08-2.94.65-13.41,11.12-16.35,18.31-11.44-.65-10.14,11.44-14.71,16.02-8.17,3.27-9.81,20.92-16.02,27.14-.33-7.85-5.88-19.62,2.94-19.62,26.16v87.62c3.27-.33,6.21,0,9.15.33,20.27,2.29,34.66,16.02,29.43,30.41,0,0,13.08,7.85,7.85,24.85-4.25,13.08-17.98,16.02-25.5,10.46-7.19-5.23-7.19-21.91,4.9-22.23,7.19-.65,11.12,6.87,8.5,12.1l-.98,1.96c4.25-1.63,5.56-7.19,5.23-12.1-1.63-11.12-14.71-24.85-38.58-22.23v48.39c0,4.9-.65,16.67,1.31,23.87,2.62,9.48,12.1,8.5,11.77.98,5.89,8.17-4.9,20.6-16.67,12.75.98,10.13-11.44,14.71-16.02,8.17-1.96,5.56-5.56,12.42-8.5,17.33,7.19,5.23,16.35,9.15,26.81,10.79,17.33,2.62,31.71-1.63,43.48-10.14,6.21-4.58,11.44-10.13,16.02-16.35,1.31.98,3.27,1.63,5.23,1.63,5.23,0,9.48-4.25,9.48-9.48s-4.25-9.48-9.48-9.48-9.48,4.25-9.48,9.48c0,.98,0,1.63.33,2.29-12.75.33-26.48-6.21-27.14-22.89,0,0,11.12,12.1,29.1-2.29,7.52-6.21,14.06-16.02,19.29-28.12,6.87-15.69,15.04-40.87,9.15-57.54-1.31-3.92-3.27-6.87-5.89-8.5ZM68.91,262.14v-37.27c-30.08,15.04-35.64,64.08-10.14,92.85,7.52-18.64,10.14-42.18,10.14-55.58Z" style="fill:#a48c71;"/><path d="M175.05,321.86c-18.96,21.25-48.06,32.04-76.51,28.77-13.4-1.63-24.52-5.56-34.33-11.77-4.9,5.23-10.79,9.81-17.33,12.1-11.12,4.25-28.77,2.29-31.71-11.12-1.63-6.54,1.96-13.4,9.15-13.4,7.52-.33,10.79,5.88,9.81,11.44-.98,5.56-5.23,8.17-10.14,6.87,5.23,4.25,14.71,3.27,19.94.33,5.23-2.94,8.83-7.85,11.77-12.42-41.85-36.62-36.29-106.59,14.06-130.78-1.63-5.88-3.92-11.12-7.52-13.08,7.52-4.25,9.81-22.23,9.81-32.37v-6.87c-7.19,15.04-32.69,13.08-40.87-6.87,0,0-10.79,3.6-17.66-5.23-5.89-7.19-6.54-18.96-4.58-30.08,7.52-44.79,50.68-67.35,92.85-67.03,143.53.65,140.91,205.98,73.24,281.5ZM178.65,188.79c3.92-2.29,6.54-8.17,8.17-14.71,2.94-12.42,1.96-21.25-.33-33.68-8.83-49.37-35.64-90.57-84.35-90.89-34.66,0-61.47,25.5-66.37,58.85-2.29,14.71-.65,24.52,2.29,30.73,5.89,12.75,21.25,15.04,23.21,1.96.65-5.89-4.25-12.1-11.77-8.17,6.21-9.48,17.98-9.15,22.56-.65,0-6.21,0-22.56-.98-28.77-1.63-7.85-7.52-9.81-13.08-2.94.65-13.41,11.12-16.35,18.31-11.44-.65-10.14,11.44-14.71,16.02-8.17,3.27-9.81,20.92-16.02,27.14-.33-7.85-5.88-19.62,2.94-19.62,26.16v87.62c3.27-.33,6.21,0,9.15.33,20.27,2.29,34.66,16.02,29.43,30.41,0,0,13.08,7.85,7.85,24.85-4.25,13.08-17.98,16.02-25.5,10.46-7.19-5.23-7.19-21.91,4.9-22.23,7.19-.65,11.12,6.87,8.5,12.1l-.98,1.96c4.25-1.63,5.56-7.19,5.23-12.1-1.63-11.12-14.71-24.85-38.58-22.23v48.39c0,4.9-.65,16.67,1.31,23.87,2.62,9.48,12.1,8.5,11.77.98,5.89,8.17-4.9,20.6-16.67,12.75.98,10.13-11.44,14.71-16.02,8.17-1.96,5.56-5.56,12.42-8.5,17.33,7.19,5.23,16.35,9.15,26.81,10.79,17.33,2.62,31.71-1.63,43.48-10.14,6.21-4.58,11.44-10.13,16.02-16.35,1.31.98,3.27,1.63,5.23,1.63,5.23,0,9.48-4.25,9.48-9.48s-4.25-9.48-9.48-9.48-9.48,4.25-9.48,9.48c0,.98,0,1.63.33,2.29-12.75.33-26.48-6.21-27.14-22.89,0,0,11.12,12.1,29.1-2.29,7.52-6.21,14.06-16.02,19.29-28.12,6.87-15.69,15.04-40.87,9.15-57.54-1.31-3.92-3.27-6.87-5.89-8.5ZM72.06,265.29v-37.27c-30.08,15.04-35.64,64.08-10.14,92.85,7.52-18.64,10.14-42.18,10.14-55.58Z" style="fill:#1d1d1b;"/><path d="M167.4,314.2c-18.96,21.25-48.06,32.04-76.51,28.77-13.4-1.63-24.52-5.56-34.33-11.77-4.9,5.23-10.79,9.81-17.33,12.1-11.12,4.25-28.77,2.29-31.71-11.12-1.63-6.54,1.96-13.4,9.15-13.4,7.52-.33,10.79,5.88,9.81,11.44-.98,5.56-5.23,8.17-10.14,6.87,5.23,4.25,14.71,3.27,19.94.33,5.23-2.94,8.83-7.85,11.77-12.42-41.85-36.62-36.29-106.59,14.06-130.78-1.63-5.88-3.92-11.12-7.52-13.08,7.52-4.25,9.81-22.23,9.81-32.37v-6.87c-7.19,15.04-32.69,13.08-40.87-6.87,0,0-10.79,3.6-17.66-5.23-5.89-7.19-6.54-18.96-4.58-30.08C8.83,54.93,51.98,32.37,94.16,32.7c143.53.65,140.91,205.98,73.24,281.5ZM170.99,181.13c3.92-2.29,6.54-8.17,8.17-14.71,2.94-12.42,1.96-21.25-.33-33.68-8.83-49.37-35.64-90.57-84.35-90.89-34.66,0-61.47,25.5-66.37,58.85-2.29,14.71-.65,24.52,2.29,30.73,5.89,12.75,21.25,15.04,23.21,1.96.65-5.89-4.25-12.1-11.77-8.17,6.21-9.48,17.98-9.15,22.56-.65,0-6.21,0-22.56-.98-28.77-1.63-7.85-7.52-9.81-13.08-2.94.65-13.41,11.12-16.35,18.31-11.44-.65-10.14,11.44-14.71,16.02-8.17,3.27-9.81,20.92-16.02,27.14-.33-7.85-5.88-19.62,2.94-19.62,26.16v87.62c3.27-.33,6.21,0,9.15.33,20.27,2.29,34.66,16.02,29.43,30.41,0,0,13.08,7.85,7.85,24.85-4.25,13.08-17.98,16.02-25.5,10.46-7.19-5.23-7.19-21.91,4.9-22.23,7.19-.65,11.12,6.87,8.5,12.1l-.98,1.96c4.25-1.63,5.56-7.19,5.23-12.1-1.63-11.12-14.71-24.85-38.58-22.23v48.39c0,4.9-.65,16.67,1.31,23.87,2.62,9.48,12.1,8.5,11.77.98,5.89,8.17-4.9,20.6-16.67,12.75.98,10.13-11.44,14.71-16.02,8.17-1.96,5.56-5.56,12.42-8.5,17.33,7.19,5.23,16.35,9.15,26.81,10.79,17.33,2.62,31.71-1.63,43.48-10.14,6.21-4.58,11.44-10.13,16.02-16.35,1.31.98,3.27,1.63,5.23,1.63,5.23,0,9.48-4.25,9.48-9.48s-4.25-9.48-9.48-9.48-9.48,4.25-9.48,9.48c0,.98,0,1.63.33,2.29-12.75.33-26.48-6.21-27.14-22.89,0,0,11.12,12.1,29.1-2.29,7.52-6.21,14.06-16.02,19.29-28.12,6.87-15.69,15.04-40.87,9.15-57.54-1.31-3.92-3.27-6.87-5.89-8.5ZM64.41,257.64v-37.27c-30.08,15.04-35.64,64.08-10.14,92.85,7.52-18.64,10.14-42.18,10.14-55.58Z" style="fill:#ba9d7a;"/><path d="M351.33,354.93c-1.31,31.71-22.89,70.95-51.33,86.97-16.35,9.16-36.29,12.75-54.93,10.79-13.41-1.63-24.52-5.56-34.33-11.77-4.9,5.23-10.79,9.81-17.33,12.1-11.12,4.25-28.77,2.29-31.71-11.12-1.63-6.54,1.96-13.4,9.15-13.4,7.52-.33,10.79,5.88,9.81,11.44-.98,5.56-5.23,8.17-10.14,6.87,5.23,4.25,14.71,3.27,19.94.33,5.23-2.94,8.83-7.85,11.77-12.42-41.85-36.62-36.29-106.59,14.06-130.78-1.63-5.88-3.92-11.12-7.52-13.08,7.52-4.25,9.81-22.23,9.81-32.37v-6.87c-7.19,15.04-32.69,13.08-40.87-6.87,0,0-10.46,3.6-17.65-5.23-5.89-7.19-6.54-18.96-4.58-30.08,9.15-53.95,69.97-75.85,111.82-64.08,55.25,15.69,59.83,86.64,11.77,112.8,50.02,5.89,74.54,51.99,72.26,96.78ZM218.59,234.28v-4.25c0-2.29,0-13.41-.33-15.37,0-2.29,0-5.88-.65-9.15-1.63-7.85-7.52-9.81-13.08-2.94.65-13.41,11.12-16.35,18.31-11.44-.65-10.14,11.44-14.71,16.02-8.17,3.27-9.81,20.92-16.02,27.14-.33-7.85-5.88-19.62,2.94-19.62,26.16v51c16.02-1.96,26.48-10.46,32.37-24.52,2.62-5.56,4.25-12.75,3.27-21.58-2.29-20.92-14.06-19.29-14.06-19.29,8.83-4.58,17.98.65,22.23,9.15.65-20.6-7.85-40.87-27.46-48.39-35.31-13.73-74.54,14.06-80.43,55.25-2.29,14.71-.65,24.52,2.29,30.73,5.88,12.75,21.25,15.04,23.21,1.96.65-5.89-4.25-12.1-11.77-8.17,6.21-9.48,17.98-9.15,22.56-.65ZM218.59,367.35v-37.27c-30.08,15.04-35.64,64.08-10.14,92.85,7.52-18.64,10.14-42.18,10.14-55.58ZM273.52,387.29s11.12,12.1,29.1-2.29c26.16-20.6,24.19-62.45,8.83-89.26-11.12-19.62-29.1-32.04-53.29-30.08-3.92.65-7.52,1.31-11.77,1.63v29.1c3.27-.33,6.21,0,9.15.33,19.94,2.29,34.66,16.02,29.43,30.41,0,0,13.08,7.85,7.85,24.85-4.25,13.08-17.98,16.02-25.5,10.46-7.19-5.23-7.19-21.91,4.9-22.23,7.19-.65,11.12,6.87,8.5,12.1-.33.65-.65,1.31-.98,1.96,4.25-1.63,5.56-7.19,5.23-12.1-1.31-11.12-14.71-24.85-38.58-22.23v48.39c0,4.9-.65,16.67,1.31,23.87,2.62,9.48,12.1,8.5,11.77.98,5.88,8.17-4.9,20.6-16.67,12.75.98,10.13-11.44,14.71-16.02,8.17-1.96,5.56-5.56,12.42-8.5,17.33,7.19,5.23,16.35,9.15,26.81,10.79,15.69,2.29,30.73-.65,43.48-10.14,6.21-4.58,11.44-10.13,16.02-16.35,1.31.98,3.27,1.63,5.23,1.63,5.23,0,9.48-4.25,9.48-9.48s-4.25-9.48-9.48-9.48-9.48,4.25-9.48,9.48c0,.98,0,1.63.33,2.29-12.75.33-26.48-6.21-27.14-22.89Z" style="fill:#a48c71;"/><path d="M343.68,347.27c-1.31,31.71-22.89,70.95-51.33,86.97-16.35,9.16-36.29,12.75-54.93,10.79-13.41-1.63-24.52-5.56-34.33-11.77-4.9,5.23-10.79,9.81-17.33,12.1-11.12,4.25-28.77,2.29-31.71-11.12-1.63-6.54,1.96-13.4,9.15-13.4,7.52-.33,10.79,5.88,9.81,11.44-.98,5.56-5.23,8.17-10.14,6.87,5.23,4.25,14.71,3.27,19.94.33,5.23-2.94,8.83-7.85,11.77-12.42-41.85-36.62-36.29-106.59,14.06-130.78-1.63-5.88-3.92-11.12-7.52-13.08,7.52-4.25,9.81-22.23,9.81-32.37v-6.87c-7.19,15.04-32.69,13.08-40.87-6.87,0,0-10.46,3.6-17.65-5.23-5.89-7.19-6.54-18.96-4.58-30.08,9.15-53.95,69.97-75.85,111.82-64.08,55.25,15.69,59.83,86.64,11.77,112.8,50.02,5.89,74.54,51.99,72.26,96.78ZM210.94,226.63v-4.25c0-2.29,0-13.41-.33-15.37,0-2.29,0-5.88-.65-9.15-1.63-7.85-7.52-9.81-13.08-2.94.65-13.41,11.12-16.35,18.31-11.44-.65-10.14,11.44-14.71,16.02-8.17,3.27-9.81,20.92-16.02,27.14-.33-7.85-5.88-19.62,2.94-19.62,26.16v51c16.02-1.96,26.48-10.46,32.37-24.52,2.62-5.56,4.25-12.75,3.27-21.58-2.29-20.92-14.06-19.29-14.06-19.29,8.83-4.58,17.98.65,22.23,9.15.65-20.6-7.85-40.87-27.46-48.39-35.31-13.73-74.54,14.06-80.43,55.25-2.29,14.71-.65,24.52,2.29,30.73,5.88,12.75,21.25,15.04,23.21,1.96.65-5.89-4.25-12.1-11.77-8.17,6.21-9.48,17.98-9.15,22.56-.65ZM210.94,359.7v-37.27c-30.08,15.04-35.64,64.08-10.14,92.85,7.52-18.64,10.14-42.18,10.14-55.58ZM265.86,379.64s11.12,12.1,29.1-2.29c26.16-20.6,24.19-62.45,8.83-89.26-11.12-19.62-29.1-32.04-53.29-30.08-3.92.65-7.52,1.31-11.77,1.63v29.1c3.27-.33,6.21,0,9.15.33,19.94,2.29,34.66,16.02,29.43,30.41,0,0,13.08,7.85,7.85,24.85-4.25,13.08-17.98,16.02-25.5,10.46-7.19-5.23-7.19-21.91,4.9-22.23,7.19-.65,11.12,6.87,8.5,12.1-.33.65-.65,1.31-.98,1.96,4.25-1.63,5.56-7.19,5.23-12.1-1.31-11.12-14.71-24.85-38.58-22.23v48.39c0,4.9-.65,16.67,1.31,23.87,2.62,9.48,12.1,8.5,11.77.98,5.88,8.17-4.9,20.6-16.67,12.75.98,10.13-11.44,14.71-16.02,8.17-1.96,5.56-5.56,12.42-8.5,17.33,7.19,5.23,16.35,9.15,26.81,10.79,15.69,2.29,30.73-.65,43.48-10.14,6.21-4.58,11.44-10.13,16.02-16.35,1.31.98,3.27,1.63,5.23,1.63,5.23,0,9.48-4.25,9.48-9.48s-4.25-9.48-9.48-9.48-9.48,4.25-9.48,9.48c0,.98,0,1.63.33,2.29-12.75.33-26.48-6.21-27.14-22.89Z" style="fill:#a48c71;"/><path d="M346.83,350.42c-1.31,31.71-22.89,70.95-51.33,86.97-16.35,9.16-36.29,12.75-54.93,10.79-13.41-1.63-24.52-5.56-34.33-11.77-4.9,5.23-10.79,9.81-17.33,12.1-11.12,4.25-28.77,2.29-31.71-11.12-1.63-6.54,1.96-13.4,9.15-13.4,7.52-.33,10.79,5.88,9.81,11.44-.98,5.56-5.23,8.17-10.14,6.87,5.23,4.25,14.71,3.27,19.94.33,5.23-2.94,8.83-7.85,11.77-12.42-41.85-36.62-36.29-106.59,14.06-130.78-1.63-5.88-3.92-11.12-7.52-13.08,7.52-4.25,9.81-22.23,9.81-32.37v-6.87c-7.19,15.04-32.69,13.08-40.87-6.87,0,0-10.46,3.6-17.65-5.23-5.89-7.19-6.54-18.96-4.58-30.08,9.15-53.95,69.97-75.85,111.82-64.08,55.25,15.69,59.83,86.64,11.77,112.8,50.02,5.89,74.54,51.99,72.26,96.78ZM214.09,229.78v-4.25c0-2.29,0-13.41-.33-15.37,0-2.29,0-5.88-.65-9.15-1.63-7.85-7.52-9.81-13.08-2.94.65-13.41,11.12-16.35,18.31-11.44-.65-10.14,11.44-14.71,16.02-8.17,3.27-9.81,20.92-16.02,27.14-.33-7.85-5.88-19.62,2.94-19.62,26.16v51c16.02-1.96,26.48-10.46,32.37-24.52,2.62-5.56,4.25-12.75,3.27-21.58-2.29-20.92-14.06-19.29-14.06-19.29,8.83-4.58,17.98.65,22.23,9.15.65-20.6-7.85-40.87-27.46-48.39-35.31-13.73-74.54,14.06-80.43,55.25-2.29,14.71-.65,24.52,2.29,30.73,5.88,12.75,21.25,15.04,23.21,1.96.65-5.89-4.25-12.1-11.77-8.17,6.21-9.48,17.98-9.15,22.56-.65ZM214.09,362.85v-37.27c-30.08,15.04-35.64,64.08-10.14,92.85,7.52-18.64,10.14-42.18,10.14-55.58ZM269.02,382.79s11.12,12.1,29.1-2.29c26.16-20.6,24.19-62.45,8.83-89.26-11.12-19.62-29.1-32.04-53.29-30.08-3.92.65-7.52,1.31-11.77,1.63v29.1c3.27-.33,6.21,0,9.15.33,19.94,2.29,34.66,16.02,29.43,30.41,0,0,13.08,7.85,7.85,24.85-4.25,13.08-17.98,16.02-25.5,10.46-7.19-5.23-7.19-21.91,4.9-22.23,7.19-.65,11.12,6.87,8.5,12.1-.33.65-.65,1.31-.98,1.96,4.25-1.63,5.56-7.19,5.23-12.1-1.31-11.12-14.71-24.85-38.58-22.23v48.39c0,4.9-.65,16.67,1.31,23.87,2.62,9.48,12.1,8.5,11.77.98,5.88,8.17-4.9,20.6-16.67,12.75.98,10.13-11.44,14.71-16.02,8.17-1.96,5.56-5.56,12.42-8.5,17.33,7.19,5.23,16.35,9.15,26.81,10.79,15.69,2.29,30.73-.65,43.48-10.14,6.21-4.58,11.44-10.13,16.02-16.35,1.31.98,3.27,1.63,5.23,1.63,5.23,0,9.48-4.25,9.48-9.48s-4.25-9.48-9.48-9.48-9.48,4.25-9.48,9.48c0,.98,0,1.63.33,2.29-12.75.33-26.48-6.21-27.14-22.89Z" style="fill:#1d1d1b;"/><path d="M339.18,342.77c-1.31,31.71-22.89,70.95-51.33,86.97-16.35,9.16-36.29,12.75-54.93,10.79-13.41-1.63-24.52-5.56-34.33-11.77-4.9,5.23-10.79,9.81-17.33,12.1-11.12,4.25-28.77,2.29-31.71-11.12-1.63-6.54,1.96-13.4,9.15-13.4,7.52-.33,10.79,5.88,9.81,11.44-.98,5.56-5.23,8.17-10.14,6.87,5.23,4.25,14.71,3.27,19.94.33,5.23-2.94,8.83-7.85,11.77-12.42-41.85-36.62-36.29-106.59,14.06-130.78-1.63-5.88-3.92-11.12-7.52-13.08,7.52-4.25,9.81-22.23,9.81-32.37v-6.87c-7.19,15.04-32.69,13.08-40.87-6.87,0,0-10.46,3.6-17.65-5.23-5.89-7.19-6.54-18.96-4.58-30.08,9.15-53.95,69.97-75.85,111.82-64.08,55.25,15.69,59.83,86.64,11.77,112.8,50.02,5.89,74.54,51.99,72.26,96.78ZM206.43,222.12v-4.25c0-2.29,0-13.41-.33-15.37,0-2.29,0-5.88-.65-9.15-1.63-7.85-7.52-9.81-13.08-2.94.65-13.41,11.12-16.35,18.31-11.44-.65-10.14,11.44-14.71,16.02-8.17,3.27-9.81,20.92-16.02,27.14-.33-7.85-5.88-19.62,2.94-19.62,26.16v51c16.02-1.96,26.48-10.46,32.37-24.52,2.62-5.56,4.25-12.75,3.27-21.58-2.29-20.92-14.06-19.29-14.06-19.29,8.83-4.58,17.98.65,22.23,9.15.65-20.6-7.85-40.87-27.46-48.39-35.31-13.73-74.54,14.06-80.43,55.25-2.29,14.71-.65,24.52,2.29,30.73,5.88,12.75,21.25,15.04,23.21,1.96.65-5.89-4.25-12.1-11.77-8.17,6.21-9.48,17.98-9.15,22.56-.65ZM206.43,355.19v-37.27c-30.08,15.04-35.64,64.08-10.14,92.85,7.52-18.64,10.14-42.18,10.14-55.58ZM261.36,375.14s11.12,12.1,29.1-2.29c26.16-20.6,24.19-62.45,8.83-89.26-11.12-19.62-29.1-32.04-53.29-30.08-3.92.65-7.52,1.31-11.77,1.63v29.1c3.27-.33,6.21,0,9.15.33,19.94,2.29,34.66,16.02,29.43,30.41,0,0,13.08,7.85,7.85,24.85-4.25,13.08-17.98,16.02-25.5,10.46-7.19-5.23-7.19-21.91,4.9-22.23,7.19-.65,11.12,6.87,8.5,12.1-.33.65-.65,1.31-.98,1.96,4.25-1.63,5.56-7.19,5.23-12.1-1.31-11.12-14.71-24.85-38.58-22.23v48.39c0,4.9-.65,16.67,1.31,23.87,2.62,9.48,12.1,8.5,11.77.98,5.88,8.17-4.9,20.6-16.67,12.75.98,10.13-11.44,14.71-16.02,8.17-1.96,5.56-5.56,12.42-8.5,17.33,7.19,5.23,16.35,9.15,26.81,10.79,15.69,2.29,30.73-.65,43.48-10.14,6.21-4.58,11.44-10.13,16.02-16.35,1.31.98,3.27,1.63,5.23,1.63,5.23,0,9.48-4.25,9.48-9.48s-4.25-9.48-9.48-9.48-9.48,4.25-9.48,9.48c0,.98,0,1.63.33,2.29-12.75.33-26.48-6.21-27.14-22.89Z" style="fill:#ba9d7a;"/></g></svg>