<?xml version="1.0" encoding="UTF-8"?><svg id="b" xmlns="http://www.w3.org/2000/svg" viewBox="0 0 613.23 116.94"><g id="c"><path d="M64.17,105.48c-5.09,7.38-13.75,11.9-22.77,12-4.25.02-7.88-.77-11.19-2.33-1.33,1.83-2.98,3.49-4.94,4.46-3.31,1.76-8.9,1.85-10.34-2.22-.77-1.98.08-4.26,2.33-4.55,2.34-.4,3.6,1.41,3.51,3.19-.09,1.77-1.31,2.76-2.9,2.54,1.8,1.12,4.72.44,6.24-.68s2.45-2.8,3.19-4.34c-14.51-9.79-15.53-31.87-.75-41.4-.74-1.77-1.66-3.32-2.86-3.79,2.18-1.62,2.19-7.33,1.79-10.5l-.27-2.14c-1.66,4.98-9.7,5.37-13.04-.54,0,0-3.23,1.55-5.72-.94-2.12-2.02-2.79-5.67-2.61-9.22.59-14.29,13.18-23.03,26.37-24.59,44.86-5.44,52.12,58.8,33.95,85.05ZM60.06,63.78c1.14-.87,1.72-2.81,1.97-4.92.43-4-.22-6.72-1.43-10.51-4.7-15.07-14.69-26.89-29.92-25.07-10.83,1.36-18.2,10.38-18.42,20.99-.14,4.69.76,7.69,1.92,9.51,2.34,3.75,7.23,3.86,7.33-.3-.03-1.86-1.8-3.61-4-2.09,1.57-3.21,5.26-3.57,7.02-1.09-.24-1.94-.89-7.05-1.44-8.95-.82-2.39-2.73-2.77-4.2-.41-.32-4.21,2.83-5.54,5.27-4.29-.6-3.14,3-5.05,4.68-3.18.64-3.19,5.91-5.83,8.46-1.17-2.68-1.53-6.01,1.69-5.1,8.94l.84,6.64,2.61,20.73c1.01-.23,1.94-.24,2.87-.26,6.42-.08,11.46,3.64,10.39,8.34,0,0,4.39,1.94,3.43,7.45-.81,4.25-4.99,5.71-7.55,4.27-2.45-1.35-3.11-6.56.66-7.14,2.22-.49,3.74,1.71,3.13,3.44-.08.22-.15.43-.23.65,1.26-.68,1.45-2.47,1.16-3.98-.95-3.41-5.57-7.18-12.93-5.43l1.9,15.11c.19,1.53.45,5.23,1.35,7.4,1.19,2.86,4.11,2.18,3.71-.16,2.16,2.32-.72,6.63-4.71,4.64.71,3.13-3,5.05-4.68,3.18-.39,1.81-1.25,4.1-1.97,5.75,2.45,1.35,5.47,2.22,8.8,2.32,5.52.13,9.84-1.76,13.18-4.88,1.76-1.67,3.18-3.62,4.36-5.74.45.25,1.09.38,1.7.3,1.63-.21,2.79-1.7,2.59-3.33-.21-1.63-1.7-2.79-3.33-2.59-1.63.21-2.79,1.7-2.59,3.33.04.31.06.51.19.7-3.97.6-8.52-.9-9.38-6.08,0,0,3.95,3.34,9-1.86,2.1-2.24,3.76-5.56,4.92-9.54,1.53-5.17,3.09-13.36.6-18.33-.56-1.17-1.29-2.02-2.17-2.42ZM29.78,91.87l-1.47-11.64c-8.8,5.88-8.61,21.42.49,29.4,1.62-6.12,1.51-13.57.98-17.76Z" style="fill:#a48c71;"/><path d="M118.36,89.92c-.42-2.13-2.91-3.23-5.19-2.28-3.37,1.47-7.71,3.56-13.3,3.6-1.76-.03-6.04-.43-7.71-1.61-.43.87-1.2,1.46-2.12,1.56s-1.79-.34-2.39-1.11c-.94.92-3.78,2.55-6.34-.3,1.43.89,4.55-.04,3.89-6.7l-.15-1.54-.53-5.33-.25-2.56c-.32-3.17-1.59-8.74-4.08-9.83,2.22-1.57,2.38-7.27,2.06-10.45l-.35-3.48-.5-5.02c-.66-6.66-3.9-6.96-5.13-5.8,1.95-3.3,5.04-2.36,6.15-1.64.43-.87,1.2-1.46,2.12-1.56s1.79.34,2.39,1.11c.48-.36,1.06-.83,1.64-1.2,6.67-3.66,12.55-1.76,16.58-.72,2.13.62,3.93-1.01,3.93-3.18,1.11.72,1.23,1.95,1.05,3.31-.6,3.37-2.26,5.4-2.8,8.24-.15,1.57-1.08,6.83,2.33,6.8-.73,2.04-3.36,2.61-4.97,1.01-1.38-1.42-.49-3.88-.23-6.49.7-5.45-2.49-8.44-7.14-8.39-3.21,0-6.2,2.17-7.04,6.18-.53,2.95-.35,6.86-.1,9.42l.44,4.4.09.92c1.43-2.31,3.74-3.99,6.6-4.38,5.32-.63,7.98,3.24,6.8,5.95-.33.86-1.46,2.01-2.39,2,1.28-3.75-2.95-5.71-6.43-4.33-6.98,2.66-3.72,13.61,1.15,12.61-.27,2.51-3.01,1.96-4.5.55.7,7.07.6,19.59,10.94,18.46,1.95-.19,4.04-1.02,5.66-2.42,1.81-1.53,2.93-3.81,2.17-6.32-.8-2.82-3.03-5.49-1.57-7.5,1.48-1.8,4.68-1.81,5.89-.07-3.86.69-1.7,5.75-1.15,7.15,1.21,2.78,3.54,4.41,4.88,7.48.55,1.39.67,2.62-.38,3.45Z" style="fill:#a48c71;"/><path d="M163.22,82.44c-1.6,3.23-4.89,2.15-6.08,1.42-.24.85-1.02,1.42-1.94,1.5s-1.89-.36-2.47-1.14c-.86.9-4.73,2.76-6.54-.4.54.27,1.06.33,1.67.18,1.21-.41,1.65-1.37,1.54-2.71-.27-2.04-2.05-6.24-2.85-8.44l-1.71-4.61-13.34,1.08c-.45,2.1-.79,4.3-1.14,6.39-.37,1.79-.74,3.57-.4,5.3.83,3.86,4.6,4.59,5.77,3.67-2.83,3.33-5.6,2.21-6.49,1.45-.55.87-1.53,1.47-2.46,1.54s-1.68-.38-1.95-1.18c-1.17.92-4.44,2.53-6.13-.44.89.75,5.11-.62,7.36-4.72.98-1.94,1.16-3.6,1.61-5.6l1.11-6.7c.46-3.24.66-8.52-1.4-9.7,2.56-1.55,4.47-7.38,5.03-10.63l1.46-8.79c.25-1.98-.79-5.93-3.2-6.35-.62-.05-1.22.2-1.61.54,2.01-3.26,5.08-2.27,6.18-1.53.45-.86,1.23-1.44,2.15-1.52s1.79.37,2.36,1.15c.96-.9,3.84-2.38,6.34.52-1.31-.93-5.05.1-3.44,5.96l14.33,39.43c1.9,4.29,5.29,5.36,6.24,4.35ZM143.89,65.51l-7.96-21.87-3.94,22.83,11.9-.96Z" style="fill:#a48c71;"/><path d="M184.89,83.79c-3.09.09-6.31-.23-9.05-1.2-.46.85-1.25,1.42-2.18,1.47-.92.06-1.78-.41-2.34-1.2-.98.88-3.87,2.4-6.32-.54,1.4.95,4.55.13,4.14-6.54-.16-2.57-.31-5.03-.47-7.6l-.11-1.85c-.2-3.18-1.26-8.79-3.71-9.98,2.28-1.48,2.65-7.17,2.46-10.36l-.23-3.7-.3-4.83c-.41-6.68-3.63-7.1-4.9-5.99,2.07-3.22,5.13-2.17,6.2-1.41.46-.85,1.25-1.42,2.18-1.47.92-.06,1.78.41,2.34,1.2,2.77-1.92,5.9-2.94,9.09-3.14,26.84-1.23,30.34,55.89,3.2,57.14ZM181.75,29.33c-4.82.4-7.11,5.18-6.84,9.49l1.75,28.46c.43,5.34.86,14.08,7.86,13.85,15.85-.56,13.04-52.98-2.77-51.8Z" style="fill:#a48c71;"/><path d="M258.02,77.62c-2.14,3.18-5.17,2.07-6.23,1.29-.48.84-1.28,1.39-2.21,1.43-.93.04-1.77-.44-2.21-1.25-.99.87-4.03,2.23-6.42-.77,1.38.97,4.54.23,4.27-6.46l-.14-3.39-.14-3.39-.77-18.92-.1-2.37-.23-5.66-8.37,19.61c3.6,9.84,2.77,22.24-8.57,24.77,4.71-3.28,4.43-10.07,3.4-15.08-2.05-9.81-8.44-19.95-14.15-28.47l.58,14.09.12.3-.09.31.63,15.43c.05,1.23,0,2.58.26,3.8.75,5.84,6.17,7.17,7.36,6.09-2.14,3.18-5.17,2.07-6.23,1.29-.48.84-1.28,1.39-2.21,1.43-.93.04-1.77-.44-2.32-1.24-.99.87-3.93,2.22-6.32-.77,1.38.97,7.17-1.01,6.9-7.7-.11-2.78-.23-5.55-.34-8.33-.13-3.19-1.08-8.81-3.5-10.05,2.31-1.43,2.8-7.12,2.67-10.31-.09-2.16-.17-4.22-.26-6.38-.04-.93.02-2.06-.13-3.08-.75-5.74-5.81-6.05-7.42-5.05,2.86-3.21,6.92-2.03,8.29-1.27.58-.85,1.59-1.4,2.83-1.46,1.34-.05,2.39.42,3.04,1.21,1.3-.88,5.26-2.38,8.37.58-1.26-.67-3.62-.47-4.87,1.85-1.34,2.42.22,5.35,1.78,8.17,3.12,5.64,6.31,10.66,8.81,16.43l5.83-13.63c.94-2.3,2.37-5.04,3-7.33.53-2.08.55-4.25-1.59-6.01-.95-.48-1.87-.34-2.47.1,2.14-3.18,5.28-1.97,6.34-1.19.38-.84,1.18-1.39,2.1-1.43s1.77.44,2.32,1.24c.99-.86,3.92-2.32,6.31.67-1.38-.97-4.54-.23-4.27,6.46l1.57,38.36c.27,6.69,3.49,7.17,4.78,6.09Z" style="fill:#a48c71;"/><path d="M303.39,76.74c-1.79,3.12-5.01,1.85-6.16,1.05-.29.83-1.11,1.36-2.03,1.38-.93.02-1.86-.48-2.39-1.29-.91.84-4.89,2.46-6.5-.8.52.3,1.04.39,1.65.28,1.23-.33,1.73-1.27,1.7-2.61-.14-2.06-1.67-6.35-2.33-8.6l-1.43-4.71-13.38.26c-.58,2.07-1.05,4.24-1.52,6.31-.48,1.76-.96,3.52-.72,5.26.59,3.9,4.32,4.86,5.54,4.01-3.03,3.15-5.73,1.86-6.57,1.06-.6.84-1.62,1.37-2.55,1.39-.93.02-1.66-.48-1.88-1.3-1.22.85-4.59,2.25-6.09-.81.84.81,5.14-.31,7.64-4.27,1.1-1.88,1.37-3.53,1.95-5.5l1.52-6.62c.66-3.2,1.17-8.46-.81-9.76,2.65-1.39,4.9-7.1,5.66-10.3l1.99-8.69c.37-1.96-.43-5.96-2.81-6.53-.62-.09-1.23.13-1.64.44,2.2-3.13,5.21-1.96,6.26-1.15.5-.83,1.31-1.36,2.24-1.38.93-.02,1.76.48,2.29,1.29,1.01-.84,3.97-2.14,6.3.91-1.25-1-5.05-.21-3.8,5.74l11.91,40.22c1.63,4.39,4.95,5.67,5.96,4.72ZM285.12,58.67l-6.62-22.31-5.32,22.55,11.94-.24Z" style="fill:#a48c71;"/><path d="M344.03,25.74c-1.34-1.03-7.2.83-7.19,7.52l.05,30.57c.73,4.22.32,8.23-2.14,11.94-1.44,2.27-3.91,3.92-7.4,4.54,3.6-2.48,3.8-7.11,3.17-11.12-1.77-11.32-12.6-25-19.82-34.97l.02,16.26.1.31-.1.31.03,18.22c0,6.69,5.88,8.43,7.22,7.4-2.26,3.09-5.25,1.86-6.28,1.04-.51.82-1.34,1.34-2.26,1.34-.93,0-1.75-.51-2.27-1.33-1.03.83-4.01,2.06-6.28-1.02,1.34,1.03,7.2-.73,7.19-7.42v-3.29s0-2.37,0-2.37v-2.68c0-3.19-.74-8.85-3.11-10.19,2.37-1.34,3.08-7,3.07-10.2v-4.22c0-1.65.09-3.5-.01-5.04-.42-5.97-5.57-6.48-7.21-5.55,2.98-3.09,7-1.76,8.34-.94.62-.82,1.65-1.34,2.88-1.34,1.34,0,2.37.51,2.99,1.33,1.34-.83,5.35-2.17,8.34.91-.93-.51-2.47-.61-3.81.31-2.36,1.75-1.12,5.15,1.66,9.16,3.71,5.24,9.49,12.65,13,20.36l-.03-22.34c-.01-6.69-5.88-8.53-7.22-7.5,2.26-3.09,5.35-1.76,6.38-.94.41-.82,1.23-1.34,2.16-1.34,1.03,0,1.85.51,2.27,1.33,1.03-.83,4.01-2.17,6.28.92Z" style="fill:#a48c71;"/><path d="M375.54,64.05c-.17,11.42-8.78,15.31-17.12,15.49-10.4.25-18.23-6.25-16.1-17.23,1.91-10.37,14.28-11.31,17.47-4.67-12.67-6.16-14.61,19.64-1.63,19.33,4.53-.14,9.52-3.56,8.92-11.39-.34-4.64-2.56-7.86-5.5-10.79-4.06-3.87-9.52-3.85-9.52-3.85,2.09-2.23-.33-5.05-.33-5.05-2.12-2.5-3.83-5.31-4.29-9.02-1.12-7.84,4.55-14.86,13.7-14.2,0,0,4.73.59,5.82,2.97,0,0,3.17-5.41,7.96-1.94,0,0-4.11-.37-4.39,4.05-.27,4.42.15,10.5-5.3,10.21,0,0,2.73-3.77.75-8.64-.89-2.07-2.63-3.03-4.58-3.26-5.65-.5-8.1,4.51-6.62,8.96,3.44,10.76,21.01,13.19,20.76,29.04Z" style="fill:#a48c71;"/><path d="M453.73,72.31c-.87,9.96-8.23,21.98-17.41,26.61-5.27,2.64-11.6,3.48-17.43,2.6-4.19-.71-7.63-2.1-10.63-4.2-1.62,1.57-3.54,2.93-5.62,3.55-3.56,1.17-9.08.3-9.81-3.96-.42-2.08.81-4.19,3.07-4.08,2.37,0,3.31,2.01,2.92,3.74-.39,1.73-1.76,2.5-3.29,2.01,1.58,1.41,4.58,1.24,6.27.39,1.69-.85,2.89-2.34,3.88-3.74-12.63-12.12-9.87-34.05,6.32-40.93-.43-1.87-1.07-3.55-2.17-4.22,2.43-1.23,3.41-6.85,3.55-10.04l.1-2.16c-2.48,4.63-10.47,3.64-12.75-2.75,0,0-3.34.98-5.48-1.9-1.75-2.35-1.78-6.06-1-9.53,3.66-16.83,23.11-22.84,36.1-18.53,17.15,5.74,17.56,28.12,2.06,35.65,15.65,2.58,22.69,17.43,21.32,31.49ZM413.73,32.43l.06-1.34c.03-.72.19-4.22.12-4.84.03-.72.08-1.85-.07-2.89-.4-2.49-2.22-3.19-4.07-1.12.4-4.21,3.73-4.98,5.92-3.33-.06-3.2,3.81-4.46,5.16-2.34,1.17-3.04,6.81-4.74,8.54.29-2.38-1.96-6.21.64-6.55,7.94l-.06,1.34-.25,5.35-.43,9.36c5.07-.38,8.48-2.91,10.54-7.24.9-1.71,1.52-3.95,1.34-6.74-.42-6.61-4.14-6.27-4.14-6.27,2.84-1.31,5.65.47,6.86,3.2.5-6.47-1.87-12.97-7.93-15.62-10.91-4.83-23.65,3.34-26.1,16.21-.93,4.59-.56,7.7.27,9.7,1.67,4.1,6.46,5.04,7.27.95.29-1.84-1.16-3.87-3.58-2.74,2.09-2.89,5.79-2.62,7.11.12ZM411.8,74.29l.54-11.72c-9.68,4.29-12.14,19.64-4.54,29.06,2.64-5.75,3.8-13.12,4-17.33ZM428.79,81.36s3.32,3.97,9.19-.3c8.53-6.1,8.52-19.29,4.07-27.94-3.21-6.33-8.69-10.5-16.32-10.23-1.24.15-2.38.3-3.73.34l-.1,2.16-.22,4.83-.02.41-.08,1.75c1.03-.06,1.95.09,2.88.24,6.24,1.01,10.67,5.54,8.81,9.99,0,0,4,2.66,2.11,7.93-1.53,4.05-5.89,4.78-8.17,2.92-2.19-1.75-1.94-6.99,1.87-6.92,2.27-.1,3.4,2.32,2.5,3.93-.11.2-.22.4-.34.6,1.36-.45,1.85-2.18,1.82-3.73-.25-3.51-4.27-8.03-11.81-7.55l-.7,15.22c-.07,1.54-.45,5.23.07,7.53.68,3.02,3.68,2.85,3.69.48,1.73,2.66-1.84,6.41-5.43,3.77.16,3.2-3.81,4.46-5.16,2.34-.7,1.72-1.93,3.83-2.92,5.33,2.19,1.75,5.01,3.12,8.28,3.78,4.9.95,9.68.24,13.82-2.56,2.02-1.35,3.75-3.02,5.28-4.91.4.33,1,.56,1.62.59,1.65.08,3.04-1.2,3.12-2.84.08-1.64-1.2-3.04-2.84-3.12s-3.04,1.2-3.12,2.84c-.01.31-.02.51.07.72-4.02-.08-8.24-2.34-8.2-7.59Z" style="fill:#a48c71;"/><path d="M497.18,83.61c-2.09,3.15-6.6,2.72-7.8.88-2.84.72-4.84-.15-6.27-1.8-4.65-5.6.32-18.55-3.71-22.77-2.68,0-5.2-.9-7.12-2.79-.67-.67-1.24-1.33-1.7-2.19l-1.48,20.33c-.49,6.67,2.65,7.52,4.06,6.59-2.48,2.92-5.36,1.36-6.33.47-.57.78-1.43,1.24-2.36,1.17-.92-.07-1.71-.64-2.16-1.5-1.09.75-4.16,1.86-6.2-1.38,1.26,1.12,4.49.74,4.97-5.93.23-3.18.46-6.26.69-9.45.23-3.18-.07-8.88-2.34-10.39,2.46-1.16,3.59-6.76,3.82-9.94.05-.72.11-1.54.17-2.26l.46-6.26c.49-6.67-2.65-7.52-4.06-6.59,2.48-2.92,5.37-1.47,6.34-.57.57-.78,1.43-1.24,2.36-1.17.92.07,1.71.64,2.16,1.5,2.58-1.46,5.62-2.07,8.71-1.94,2.36.17,4.38.73,6.18,1.59,11.05,5.55,9.8,24.04-.7,29.36-.64.26-1.17.53-1.92.79,8.81,5.18,4.08,20.42,10.53,23.99,1.49.83,3.15.64,3.7.27ZM482.51,54.16c4.51-6.69,5.17-22.74-3.12-23.66-7.18-.63-7.76,10.17-8.13,15.2.67-.67,1.53-1.23,2.48-1.47,2.43-.75,5.13.48,5.71,3.82-2.66-1.74-5.03,1.08-5.24,3.95-.58,5.12,4.95,7.17,8.31,2.15Z" style="fill:#a48c71;"/><path d="M543.39,36.84c-1.13-1.14-7.04.05-7.86,6.49-.04.41-.09.92-.13,1.33l-2.29,24.08-.33,3.48c-.98,10.25-6.2,16.26-15.73,15.36-12.19-1.16-16.29-8.06-15.32-18.31l.1-1.02c.3-3.18.12-8.88-2.11-10.44,2.48-1.11,3.74-6.67,4.04-9.85l.16-1.64.24-2.56.41-4.3c.63-6.66-2.48-7.58-3.91-6.68,2.55-2.86,5.39-1.24,6.34-.33.59-.77,1.46-1.21,2.38-1.12.92.09,1.69.68,2.13,1.55,1.1-.72,4.2-1.77,6.16,1.52-1.23-1.15-4.47-.84-5.1,5.82l-.62,6.56-2.06,21.62c-.32,3.38-.44,6.78.69,10.09.82,2.25,2.2,4.04,4.57,5.19,1.59.67,3.63.97,5.39.93,4.69-.38,7.38-3.64,8.75-8.27.77-2.62.87-4.78,1.12-7.44l1.35-14.14.55-5.74.54-5.63c.63-6.66-5.03-9.06-6.46-8.16,2.55-2.86,5.49-1.23,6.44-.32.49-.78,1.36-1.21,2.28-1.13,1.02.1,1.79.69,2.13,1.55,1.1-.72,4.2-1.77,6.16,1.52Z" style="fill:#a48c71;"/><path d="M570.02,78c-1.31,11.35-10.25,14.36-18.57,13.71-10.38-.78-17.52-8.03-14.31-18.74,2.93-10.13,15.33-9.84,17.85-2.92-12-7.39-16.49,18.1-3.54,19.07,4.52.31,9.83-2.6,10.01-10.45.12-4.65-1.76-8.08-4.4-11.28-3.65-4.25-9.08-4.78-9.08-4.78,2.3-2.01.17-5.06.17-5.06-1.86-2.7-3.29-5.66-3.37-9.4-.33-7.91,6-14.33,15.04-12.77,0,0,4.64,1.05,5.5,3.53,0,0,3.69-5.07,8.11-1.14,0,0-4.05-.78-4.77,3.59s-.9,10.46-6.29,9.64c0,0,3.09-3.48,1.6-8.52-.68-2.15-2.32-3.27-4.24-3.7-5.58-1.06-8.51,3.68-7.48,8.26,2.35,11.05,19.59,15.21,17.78,30.95Z" style="fill:#a48c71;"/><path d="M610.09,96.75c-2.67,2.75-5.44,1.02-6.35.06-.62.75-1.51,1.14-2.43,1.02-.92-.13-1.66-.75-2.06-1.63-1.13.67-4.27,1.59-6.09-1.78,1.19,1.2,4.43,1.03,5.34-5.6l2.93-21.21c-.64.85-2.15,1.99-3.24,1.63,2.71-3.05-1.23-7.65-6.07-6.45-8.26,1.87-7.66,14.11-2.07,14.26-1.01,2.77-3.84,1.44-5.13-.5l-1.41,10.2c-.91,6.63,2.16,7.67,3.63,6.84-2.67,2.75-5.44,1.02-6.35.06-.62.75-1.51,1.14-2.43,1.02-.92-.13-1.66-.75-2.06-1.63-1.13.67-4.27,1.59-6.09-1.78,1.18,1.2,4.43,1.03,5.34-5.6.44-3.16.86-6.22,1.29-9.38.44-3.16.5-8.87-1.67-10.52,2.53-1,4.02-6.51,4.45-9.67.39-2.85.79-5.71,1.17-8.46.92-6.63-2.16-7.68-3.63-6.84,2.67-2.75,5.45-1.12,6.36-.16.62-.75,1.51-1.14,2.43-1.02.92.13,1.66.75,2.06,1.64,1.13-.68,4.26-1.49,6.08,1.88-1.19-1.2-4.43-1.03-5.34,5.6l-1.9,13.76c2.17-2.19,5.27-3.53,8.54-3.18,3.79.42,5.89,2.48,6.53,4.64l1.82-13.15c.91-6.63-2.16-7.67-3.63-6.84,2.67-2.75,5.45-1.12,6.36-.16.62-.75,1.51-1.14,2.43-1.02.92.13,1.66.75,2.06,1.63,1.13-.67,4.26-1.49,6.08,1.88-1.18-1.2-4.43-1.03-5.34,5.6l-5.25,38.03c-.92,6.63,2.16,7.68,3.63,6.84Z" style="fill:#a48c71;"/><path d="M61.76,103.07c-5.09,7.38-13.75,11.9-22.77,12-4.25.02-7.88-.77-11.19-2.33-1.33,1.83-2.98,3.49-4.94,4.46-3.31,1.76-8.9,1.85-10.34-2.22-.77-1.98.08-4.26,2.33-4.55,2.34-.4,3.6,1.41,3.51,3.19-.09,1.77-1.31,2.76-2.9,2.54,1.8,1.12,4.72.44,6.24-.68s2.45-2.8,3.19-4.34c-14.51-9.79-15.53-31.87-.75-41.4-.74-1.77-1.66-3.32-2.86-3.79,2.18-1.62,2.19-7.33,1.79-10.5l-.27-2.14c-1.66,4.98-9.7,5.37-13.04-.54,0,0-3.23,1.55-5.72-.94-2.12-2.02-2.79-5.67-2.61-9.22.59-14.29,13.18-23.03,26.37-24.59,44.86-5.44,52.12,58.8,33.95,85.05ZM57.65,61.37c1.14-.87,1.72-2.81,1.97-4.92.43-4-.22-6.72-1.43-10.51-4.7-15.07-14.69-26.89-29.92-25.07-10.83,1.36-18.2,10.38-18.42,20.99-.14,4.69.76,7.69,1.92,9.51,2.34,3.75,7.23,3.86,7.33-.3-.03-1.86-1.8-3.61-4-2.09,1.57-3.21,5.26-3.57,7.02-1.09-.24-1.94-.89-7.05-1.44-8.95-.82-2.39-2.73-2.77-4.2-.41-.32-4.21,2.83-5.54,5.27-4.29-.6-3.14,3-5.05,4.68-3.18.64-3.19,5.91-5.83,8.46-1.17-2.68-1.53-6.01,1.69-5.1,8.94l.84,6.64,2.61,20.73c1.01-.23,1.94-.24,2.87-.26,6.42-.08,11.46,3.64,10.39,8.34,0,0,4.39,1.94,3.43,7.45-.81,4.25-4.99,5.71-7.55,4.27-2.45-1.35-3.11-6.56.66-7.14,2.22-.49,3.74,1.71,3.13,3.44-.08.22-.15.43-.23.65,1.26-.68,1.45-2.47,1.16-3.98-.95-3.41-5.57-7.18-12.93-5.43l1.9,15.11c.19,1.53.45,5.23,1.35,7.4,1.19,2.86,4.11,2.18,3.71-.16,2.16,2.32-.72,6.63-4.71,4.64.71,3.13-3,5.05-4.68,3.18-.39,1.81-1.25,4.1-1.97,5.75,2.45,1.35,5.47,2.22,8.8,2.32,5.52.13,9.84-1.76,13.18-4.88,1.76-1.67,3.18-3.62,4.36-5.74.45.25,1.09.38,1.7.3,1.63-.21,2.79-1.7,2.59-3.33-.21-1.63-1.7-2.79-3.33-2.59-1.63.21-2.79,1.7-2.59,3.33.04.31.06.51.19.7-3.97.6-8.52-.9-9.38-6.08,0,0,3.95,3.34,9-1.86,2.1-2.24,3.76-5.56,4.92-9.54,1.53-5.17,3.09-13.36.6-18.33-.56-1.17-1.29-2.02-2.17-2.42ZM27.37,89.46l-1.47-11.64c-8.8,5.88-8.61,21.42.49,29.4,1.62-6.12,1.51-13.57.98-17.76Z" style="fill:#a48c71;"/><path d="M115.95,87.51c-.42-2.13-2.91-3.23-5.19-2.28-3.37,1.47-7.71,3.56-13.3,3.6-1.76-.03-6.04-.43-7.71-1.61-.43.87-1.2,1.46-2.12,1.56s-1.79-.34-2.39-1.11c-.94.92-3.78,2.55-6.34-.3,1.43.89,4.55-.04,3.89-6.7l-.15-1.54-.53-5.33-.25-2.56c-.32-3.17-1.59-8.74-4.08-9.83,2.22-1.57,2.38-7.27,2.06-10.45l-.35-3.48-.5-5.02c-.66-6.66-3.9-6.96-5.13-5.8,1.95-3.3,5.04-2.36,6.15-1.64.43-.87,1.2-1.46,2.12-1.56s1.79.34,2.39,1.11c.48-.36,1.06-.83,1.64-1.2,6.67-3.66,12.55-1.76,16.58-.72,2.13.62,3.93-1.01,3.93-3.18,1.11.72,1.23,1.95,1.05,3.31-.6,3.37-2.26,5.4-2.8,8.24-.15,1.57-1.08,6.83,2.33,6.8-.73,2.04-3.36,2.61-4.97,1.01-1.38-1.42-.49-3.88-.23-6.49.7-5.45-2.49-8.44-7.14-8.39-3.21,0-6.2,2.17-7.04,6.18-.53,2.95-.35,6.86-.1,9.42l.44,4.4.09.92c1.43-2.31,3.74-3.99,6.6-4.38,5.32-.63,7.98,3.24,6.8,5.95-.33.86-1.46,2.01-2.39,2,1.28-3.75-2.95-5.71-6.43-4.33-6.98,2.66-3.72,13.61,1.15,12.61-.27,2.51-3.01,1.96-4.5.55.7,7.07.6,19.59,10.94,18.46,1.95-.19,4.04-1.02,5.66-2.42,1.81-1.53,2.93-3.81,2.17-6.32-.8-2.82-3.03-5.49-1.57-7.5,1.48-1.8,4.68-1.81,5.89-.07-3.86.69-1.7,5.75-1.15,7.15,1.21,2.78,3.54,4.41,4.88,7.48.55,1.39.67,2.62-.38,3.45Z" style="fill:#a48c71;"/><path d="M160.81,80.03c-1.6,3.23-4.89,2.15-6.08,1.42-.24.85-1.02,1.42-1.94,1.5s-1.89-.36-2.47-1.14c-.86.9-4.73,2.76-6.54-.4.54.27,1.06.33,1.67.18,1.21-.41,1.65-1.37,1.54-2.71-.27-2.04-2.05-6.24-2.85-8.44l-1.71-4.61-13.34,1.08c-.45,2.1-.79,4.3-1.14,6.39-.37,1.79-.74,3.57-.4,5.3.83,3.86,4.6,4.59,5.77,3.67-2.83,3.33-5.6,2.21-6.49,1.45-.55.87-1.53,1.47-2.46,1.54s-1.68-.38-1.95-1.18c-1.17.92-4.44,2.53-6.13-.44.89.75,5.11-.62,7.36-4.72.98-1.94,1.16-3.6,1.61-5.6l1.11-6.7c.46-3.24.66-8.52-1.4-9.7,2.56-1.55,4.47-7.38,5.03-10.63l1.46-8.79c.25-1.98-.79-5.93-3.2-6.35-.62-.05-1.22.2-1.61.54,2.01-3.26,5.08-2.27,6.18-1.53.45-.86,1.23-1.44,2.15-1.52s1.79.37,2.36,1.15c.96-.9,3.84-2.38,6.34.52-1.31-.93-5.05.1-3.44,5.96l14.33,39.43c1.9,4.29,5.29,5.36,6.24,4.35ZM141.48,63.1l-7.96-21.87-3.94,22.83,11.9-.96Z" style="fill:#a48c71;"/><path d="M182.48,81.38c-3.09.09-6.31-.23-9.05-1.2-.46.85-1.25,1.42-2.18,1.47-.92.06-1.78-.41-2.34-1.2-.98.88-3.87,2.4-6.32-.54,1.4.95,4.55.13,4.14-6.54-.16-2.57-.31-5.03-.47-7.6l-.11-1.85c-.2-3.18-1.26-8.79-3.71-9.98,2.28-1.48,2.65-7.17,2.46-10.36l-.23-3.7-.3-4.83c-.41-6.68-3.63-7.1-4.9-5.99,2.07-3.22,5.13-2.17,6.2-1.41.46-.85,1.25-1.42,2.18-1.47.92-.06,1.78.41,2.34,1.2,2.77-1.92,5.9-2.94,9.09-3.14,26.84-1.23,30.34,55.89,3.2,57.14ZM179.34,26.92c-4.82.4-7.11,5.18-6.84,9.49l1.75,28.46c.43,5.34.86,14.08,7.86,13.85,15.85-.56,13.04-52.98-2.77-51.8Z" style="fill:#a48c71;"/><path d="M255.61,75.21c-2.14,3.18-5.17,2.07-6.23,1.29-.48.84-1.28,1.39-2.21,1.43-.93.04-1.77-.44-2.21-1.25-.99.87-4.03,2.23-6.42-.77,1.38.97,4.54.23,4.27-6.46l-.14-3.39-.14-3.39-.77-18.92-.1-2.37-.23-5.66-8.37,19.61c3.6,9.84,2.77,22.24-8.57,24.77,4.71-3.28,4.43-10.07,3.4-15.08-2.05-9.81-8.44-19.95-14.15-28.47l.58,14.09.12.3-.09.31.63,15.43c.05,1.23,0,2.58.26,3.8.75,5.84,6.17,7.17,7.36,6.09-2.14,3.18-5.17,2.07-6.23,1.29-.48.84-1.28,1.39-2.21,1.43-.93.04-1.77-.44-2.32-1.24-.99.87-3.93,2.22-6.32-.77,1.38.97,7.17-1.01,6.9-7.7-.11-2.78-.23-5.55-.34-8.33-.13-3.19-1.08-8.81-3.5-10.05,2.31-1.43,2.8-7.12,2.67-10.31-.09-2.16-.17-4.22-.26-6.38-.04-.93.02-2.06-.13-3.08-.75-5.74-5.81-6.05-7.42-5.05,2.86-3.21,6.92-2.03,8.29-1.27.58-.85,1.59-1.4,2.83-1.46,1.34-.05,2.39.42,3.04,1.21,1.3-.88,5.26-2.38,8.37.58-1.26-.67-3.62-.47-4.87,1.85-1.34,2.42.22,5.35,1.78,8.17,3.12,5.64,6.31,10.66,8.81,16.43l5.83-13.63c.94-2.3,2.37-5.04,3-7.33.53-2.08.55-4.25-1.59-6.01-.95-.48-1.87-.34-2.47.1,2.14-3.18,5.28-1.97,6.34-1.19.38-.84,1.18-1.39,2.1-1.43s1.77.44,2.32,1.24c.99-.86,3.92-2.32,6.31.67-1.38-.97-4.54-.23-4.27,6.46l1.57,38.36c.27,6.69,3.49,7.17,4.78,6.09Z" style="fill:#a48c71;"/><path d="M300.98,74.33c-1.79,3.12-5.01,1.85-6.16,1.05-.29.83-1.11,1.36-2.03,1.38-.93.02-1.86-.48-2.39-1.29-.91.84-4.89,2.46-6.5-.8.52.3,1.04.39,1.65.28,1.23-.33,1.73-1.27,1.7-2.61-.14-2.06-1.67-6.35-2.33-8.6l-1.43-4.71-13.38.26c-.58,2.07-1.05,4.24-1.52,6.31-.48,1.76-.96,3.52-.72,5.26.59,3.9,4.32,4.86,5.54,4.01-3.03,3.15-5.73,1.86-6.57,1.06-.6.84-1.62,1.37-2.55,1.39-.93.02-1.66-.48-1.88-1.3-1.22.85-4.59,2.25-6.09-.81.84.81,5.14-.31,7.64-4.27,1.1-1.88,1.37-3.53,1.95-5.5l1.52-6.62c.66-3.2,1.17-8.46-.81-9.76,2.65-1.39,4.9-7.1,5.66-10.3l1.99-8.69c.37-1.96-.43-5.96-2.81-6.53-.62-.09-1.23.13-1.64.44,2.2-3.13,5.21-1.96,6.26-1.15.5-.83,1.31-1.36,2.24-1.38.93-.02,1.76.48,2.29,1.29,1.01-.84,3.97-2.14,6.3.91-1.25-1-5.05-.21-3.8,5.74l11.91,40.22c1.63,4.39,4.95,5.67,5.96,4.72ZM282.71,56.26l-6.62-22.31-5.32,22.55,11.94-.24Z" style="fill:#a48c71;"/><path d="M341.62,23.33c-1.34-1.03-7.2.83-7.19,7.52l.05,30.57c.73,4.22.32,8.23-2.14,11.94-1.44,2.27-3.91,3.92-7.4,4.54,3.6-2.48,3.8-7.11,3.17-11.12-1.77-11.32-12.6-25-19.82-34.97l.02,16.26.1.31-.1.31.03,18.22c0,6.69,5.88,8.43,7.22,7.4-2.26,3.09-5.25,1.86-6.28,1.04-.51.82-1.34,1.34-2.26,1.34-.93,0-1.75-.51-2.27-1.33-1.03.83-4.01,2.06-6.28-1.02,1.34,1.03,7.2-.73,7.19-7.42v-3.29s0-2.37,0-2.37v-2.68c0-3.19-.74-8.85-3.11-10.19,2.37-1.34,3.08-7,3.07-10.2v-4.22c0-1.65.09-3.5-.01-5.04-.42-5.97-5.57-6.48-7.21-5.55,2.98-3.09,7-1.76,8.34-.94.62-.82,1.65-1.34,2.88-1.34,1.34,0,2.37.51,2.99,1.33,1.34-.83,5.35-2.17,8.34.91-.93-.51-2.47-.61-3.81.31-2.36,1.75-1.12,5.15,1.66,9.16,3.71,5.24,9.49,12.65,13,20.36l-.03-22.34c-.01-6.69-5.88-8.53-7.22-7.5,2.26-3.09,5.35-1.76,6.38-.94.41-.82,1.23-1.34,2.16-1.34,1.03,0,1.85.51,2.27,1.33,1.03-.83,4.01-2.17,6.28.92Z" style="fill:#a48c71;"/><path d="M373.13,61.65c-.17,11.42-8.78,15.31-17.12,15.49-10.4.25-18.23-6.25-16.1-17.23,1.91-10.37,14.28-11.31,17.47-4.67-12.67-6.16-14.61,19.64-1.63,19.33,4.53-.14,9.52-3.56,8.92-11.39-.34-4.64-2.56-7.86-5.5-10.79-4.06-3.87-9.52-3.85-9.52-3.85,2.09-2.23-.33-5.05-.33-5.05-2.12-2.5-3.83-5.31-4.29-9.02-1.12-7.84,4.55-14.86,13.7-14.2,0,0,4.73.59,5.82,2.97,0,0,3.17-5.41,7.96-1.94,0,0-4.11-.37-4.39,4.05-.27,4.42.15,10.5-5.3,10.21,0,0,2.73-3.77.75-8.64-.89-2.07-2.63-3.03-4.58-3.26-5.65-.5-8.1,4.51-6.62,8.96,3.44,10.76,21.01,13.19,20.76,29.04Z" style="fill:#a48c71;"/><path d="M451.32,69.9c-.87,9.96-8.23,21.98-17.41,26.61-5.27,2.64-11.6,3.48-17.43,2.6-4.19-.71-7.63-2.1-10.63-4.2-1.62,1.57-3.54,2.93-5.62,3.55-3.56,1.17-9.08.3-9.81-3.96-.42-2.08.81-4.19,3.07-4.08,2.37,0,3.31,2.01,2.92,3.74-.39,1.73-1.76,2.5-3.29,2.01,1.58,1.41,4.58,1.24,6.27.39,1.69-.85,2.89-2.34,3.88-3.74-12.63-12.12-9.87-34.05,6.32-40.93-.43-1.87-1.07-3.55-2.17-4.22,2.43-1.23,3.41-6.85,3.55-10.04l.1-2.16c-2.48,4.63-10.47,3.64-12.75-2.75,0,0-3.34.98-5.48-1.9-1.75-2.35-1.78-6.06-1-9.53,3.66-16.83,23.11-22.84,36.1-18.53,17.15,5.74,17.56,28.12,2.06,35.65,15.65,2.58,22.69,17.43,21.32,31.49ZM411.32,30.03l.06-1.34c.03-.72.19-4.22.12-4.84.03-.72.08-1.85-.07-2.89-.4-2.49-2.22-3.19-4.07-1.12.4-4.21,3.73-4.98,5.92-3.33-.06-3.2,3.81-4.46,5.16-2.34,1.17-3.04,6.81-4.74,8.54.29-2.38-1.96-6.21.64-6.55,7.94l-.06,1.34-.25,5.35-.43,9.36c5.07-.38,8.48-2.91,10.54-7.24.9-1.71,1.52-3.95,1.34-6.74-.42-6.61-4.14-6.27-4.14-6.27,2.84-1.31,5.65.47,6.86,3.2.5-6.47-1.87-12.97-7.93-15.62-10.91-4.83-23.65,3.34-26.1,16.21-.93,4.59-.56,7.7.27,9.7,1.67,4.1,6.46,5.04,7.27.95.29-1.84-1.16-3.87-3.58-2.74,2.09-2.89,5.79-2.62,7.11.12ZM409.39,71.88l.54-11.72c-9.68,4.29-12.14,19.64-4.54,29.06,2.64-5.75,3.8-13.12,4-17.33ZM426.38,78.95s3.32,3.97,9.19-.3c8.53-6.1,8.52-19.29,4.07-27.94-3.21-6.33-8.69-10.5-16.32-10.23-1.24.15-2.38.3-3.73.34l-.1,2.16-.22,4.83-.02.41-.08,1.75c1.03-.06,1.95.09,2.88.24,6.24,1.01,10.67,5.54,8.81,9.99,0,0,4,2.66,2.11,7.93-1.53,4.05-5.89,4.78-8.17,2.92-2.19-1.75-1.94-6.99,1.87-6.92,2.27-.1,3.4,2.32,2.5,3.93-.11.2-.22.4-.34.6,1.36-.45,1.85-2.18,1.82-3.73-.25-3.51-4.27-8.03-11.81-7.55l-.7,15.22c-.07,1.54-.45,5.23.07,7.53.68,3.02,3.68,2.85,3.69.48,1.73,2.66-1.84,6.41-5.43,3.77.16,3.2-3.81,4.46-5.16,2.34-.7,1.72-1.93,3.83-2.92,5.33,2.19,1.75,5.01,3.12,8.28,3.78,4.9.95,9.68.24,13.82-2.56,2.02-1.35,3.75-3.02,5.28-4.91.4.33,1,.56,1.62.59,1.65.08,3.04-1.2,3.12-2.84.08-1.64-1.2-3.04-2.84-3.12s-3.04,1.2-3.12,2.84c-.01.31-.02.51.07.72-4.02-.08-8.24-2.34-8.2-7.59Z" style="fill:#a48c71;"/><path d="M494.77,81.2c-2.09,3.15-6.6,2.72-7.8.88-2.84.72-4.84-.15-6.27-1.8-4.65-5.6.32-18.55-3.71-22.77-2.68,0-5.2-.9-7.12-2.79-.67-.67-1.24-1.33-1.7-2.19l-1.48,20.33c-.49,6.67,2.65,7.52,4.06,6.59-2.48,2.92-5.36,1.36-6.33.47-.57.78-1.43,1.24-2.36,1.17-.92-.07-1.71-.64-2.16-1.5-1.09.75-4.16,1.86-6.2-1.38,1.26,1.12,4.49.74,4.97-5.93.23-3.18.46-6.26.69-9.45.23-3.18-.07-8.88-2.34-10.39,2.46-1.16,3.59-6.76,3.82-9.94.05-.72.11-1.54.17-2.26l.46-6.26c.49-6.67-2.65-7.52-4.06-6.59,2.48-2.92,5.37-1.47,6.34-.57.57-.78,1.43-1.24,2.36-1.17.92.07,1.71.64,2.16,1.5,2.58-1.46,5.62-2.07,8.71-1.94,2.36.17,4.38.73,6.18,1.59,11.05,5.55,9.8,24.04-.7,29.36-.64.26-1.17.53-1.92.79,8.81,5.18,4.08,20.42,10.53,23.99,1.49.83,3.15.64,3.7.27ZM480.1,51.75c4.51-6.69,5.17-22.74-3.12-23.66-7.18-.63-7.76,10.17-8.13,15.2.67-.67,1.53-1.23,2.48-1.47,2.43-.75,5.13.48,5.71,3.82-2.66-1.74-5.03,1.08-5.24,3.95-.58,5.12,4.95,7.17,8.31,2.15Z" style="fill:#a48c71;"/><path d="M540.98,34.43c-1.13-1.14-7.04.05-7.86,6.49-.04.41-.09.92-.13,1.33l-2.29,24.08-.33,3.48c-.98,10.25-6.2,16.26-15.73,15.36-12.19-1.16-16.29-8.06-15.32-18.31l.1-1.02c.3-3.18.12-8.88-2.11-10.44,2.48-1.11,3.74-6.67,4.04-9.85l.16-1.64.24-2.56.41-4.3c.63-6.66-2.48-7.58-3.91-6.68,2.55-2.86,5.39-1.24,6.34-.33.59-.77,1.46-1.21,2.38-1.12.92.09,1.69.68,2.13,1.55,1.1-.72,4.2-1.77,6.16,1.52-1.23-1.15-4.47-.84-5.1,5.82l-.62,6.56-2.06,21.62c-.32,3.38-.44,6.78.69,10.09.82,2.25,2.2,4.04,4.57,5.19,1.59.67,3.63.97,5.39.93,4.69-.38,7.38-3.64,8.75-8.27.77-2.62.87-4.78,1.12-7.44l1.35-14.14.55-5.74.54-5.63c.63-6.66-5.03-9.06-6.46-8.16,2.55-2.86,5.49-1.23,6.44-.32.49-.78,1.36-1.21,2.28-1.13,1.02.1,1.79.69,2.13,1.55,1.1-.72,4.2-1.77,6.16,1.52Z" style="fill:#a48c71;"/><path d="M567.61,75.59c-1.31,11.35-10.25,14.36-18.57,13.71-10.38-.78-17.52-8.03-14.31-18.74,2.93-10.13,15.33-9.84,17.85-2.92-12-7.39-16.49,18.1-3.54,19.07,4.52.31,9.83-2.6,10.01-10.45.12-4.65-1.76-8.08-4.4-11.28-3.65-4.25-9.08-4.78-9.08-4.78,2.3-2.01.17-5.06.17-5.06-1.86-2.7-3.29-5.66-3.37-9.4-.33-7.91,6-14.33,15.04-12.77,0,0,4.64,1.05,5.5,3.53,0,0,3.69-5.07,8.11-1.14,0,0-4.05-.78-4.77,3.59s-.9,10.46-6.29,9.64c0,0,3.09-3.48,1.6-8.52-.68-2.15-2.32-3.27-4.24-3.7-5.58-1.06-8.51,3.68-7.48,8.26,2.35,11.05,19.59,15.21,17.78,30.95Z" style="fill:#a48c71;"/><path d="M607.68,94.34c-2.67,2.75-5.44,1.02-6.35.06-.62.75-1.51,1.14-2.43,1.02-.92-.13-1.66-.75-2.06-1.63-1.13.67-4.27,1.59-6.09-1.78,1.19,1.2,4.43,1.03,5.34-5.6l2.93-21.21c-.64.85-2.15,1.99-3.24,1.63,2.71-3.05-1.23-7.65-6.07-6.45-8.26,1.87-7.66,14.11-2.07,14.26-1.01,2.77-3.84,1.44-5.13-.5l-1.41,10.2c-.91,6.63,2.16,7.67,3.63,6.84-2.67,2.75-5.44,1.02-6.35.06-.62.75-1.51,1.14-2.43,1.02-.92-.13-1.66-.75-2.06-1.63-1.13.67-4.27,1.59-6.09-1.78,1.18,1.2,4.43,1.03,5.34-5.6.44-3.16.86-6.22,1.29-9.38.44-3.16.5-8.87-1.67-10.52,2.53-1,4.02-6.51,4.45-9.67.39-2.85.79-5.71,1.17-8.46.92-6.63-2.16-7.68-3.63-6.84,2.67-2.75,5.45-1.12,6.36-.16.62-.75,1.51-1.14,2.43-1.02.92.13,1.66.75,2.06,1.64,1.13-.68,4.26-1.49,6.08,1.88-1.19-1.2-4.43-1.03-5.34,5.6l-1.9,13.76c2.17-2.19,5.27-3.53,8.54-3.18,3.79.42,5.89,2.48,6.53,4.64l1.82-13.15c.91-6.63-2.16-7.67-3.63-6.84,2.67-2.75,5.45-1.12,6.36-.16.62-.75,1.51-1.14,2.43-1.02.92.13,1.66.75,2.06,1.63,1.13-.67,4.26-1.49,6.08,1.88-1.18-1.2-4.43-1.03-5.34,5.6l-5.25,38.03c-.92,6.63,2.16,7.68,3.63,6.84Z" style="fill:#a48c71;"/><path d="M62.75,104.07c-5.09,7.38-13.75,11.9-22.77,12-4.25.02-7.88-.77-11.19-2.33-1.33,1.83-2.98,3.49-4.94,4.46-3.31,1.76-8.9,1.85-10.34-2.22-.77-1.98.08-4.26,2.33-4.55,2.34-.4,3.6,1.41,3.51,3.19-.09,1.77-1.31,2.76-2.9,2.54,1.8,1.12,4.72.44,6.24-.68s2.45-2.8,3.19-4.34c-14.51-9.79-15.53-31.87-.75-41.4-.74-1.77-1.66-3.32-2.86-3.79,2.18-1.62,2.19-7.33,1.79-10.5l-.27-2.14c-1.66,4.98-9.7,5.37-13.04-.54,0,0-3.23,1.55-5.72-.94-2.12-2.02-2.79-5.67-2.61-9.22.59-14.29,13.18-23.03,26.37-24.59,44.86-5.44,52.12,58.8,33.95,85.05ZM58.64,62.36c1.14-.87,1.72-2.81,1.97-4.92.43-4-.22-6.72-1.43-10.51-4.7-15.07-14.69-26.89-29.92-25.07-10.83,1.36-18.2,10.38-18.42,20.99-.14,4.69.76,7.69,1.92,9.51,2.34,3.75,7.23,3.86,7.33-.3-.03-1.86-1.8-3.61-4-2.09,1.57-3.21,5.26-3.57,7.02-1.09-.24-1.94-.89-7.05-1.44-8.95-.82-2.39-2.73-2.77-4.2-.41-.32-4.21,2.83-5.54,5.27-4.29-.6-3.14,3-5.05,4.68-3.18.64-3.19,5.91-5.83,8.46-1.17-2.68-1.53-6.01,1.69-5.1,8.94l.84,6.64,2.61,20.73c1.01-.23,1.94-.24,2.87-.26,6.42-.08,11.46,3.64,10.39,8.34,0,0,4.39,1.94,3.43,7.45-.81,4.25-4.99,5.71-7.55,4.27-2.45-1.35-3.11-6.56.66-7.14,2.22-.49,3.74,1.71,3.13,3.44-.08.22-.15.43-.23.65,1.26-.68,1.45-2.47,1.16-3.98-.95-3.41-5.57-7.18-12.93-5.43l1.9,15.11c.19,1.53.45,5.23,1.35,7.4,1.19,2.86,4.11,2.18,3.71-.16,2.16,2.32-.72,6.63-4.71,4.64.71,3.13-3,5.05-4.68,3.18-.39,1.81-1.25,4.1-1.97,5.75,2.45,1.35,5.47,2.22,8.8,2.32,5.52.13,9.84-1.76,13.18-4.88,1.76-1.67,3.18-3.62,4.36-5.74.45.25,1.09.38,1.7.3,1.63-.21,2.79-1.7,2.59-3.33-.21-1.63-1.7-2.79-3.33-2.59-1.63.21-2.79,1.7-2.59,3.33.04.31.06.51.19.7-3.97.6-8.52-.9-9.38-6.08,0,0,3.95,3.34,9-1.86,2.1-2.24,3.76-5.56,4.92-9.54,1.53-5.17,3.09-13.36.6-18.33-.56-1.17-1.29-2.02-2.17-2.42ZM28.36,90.45l-1.47-11.64c-8.8,5.88-8.61,21.42.49,29.4,1.62-6.12,1.51-13.57.98-17.76Z" style="fill:#1d1d1b;"/><path d="M116.94,88.5c-.42-2.13-2.91-3.23-5.19-2.28-3.37,1.47-7.71,3.56-13.3,3.6-1.76-.03-6.04-.43-7.71-1.61-.43.87-1.2,1.46-2.12,1.56s-1.79-.34-2.39-1.11c-.94.92-3.78,2.55-6.34-.3,1.43.89,4.55-.04,3.89-6.7l-.15-1.54-.53-5.33-.25-2.56c-.32-3.17-1.59-8.74-4.08-9.83,2.22-1.57,2.38-7.27,2.06-10.45l-.35-3.48-.5-5.02c-.66-6.66-3.9-6.96-5.13-5.8,1.95-3.3,5.04-2.36,6.15-1.64.43-.87,1.2-1.46,2.12-1.56s1.79.34,2.39,1.11c.48-.36,1.06-.83,1.64-1.2,6.67-3.66,12.55-1.76,16.58-.72,2.13.62,3.93-1.01,3.93-3.18,1.11.72,1.23,1.95,1.05,3.31-.6,3.37-2.26,5.4-2.8,8.24-.15,1.57-1.08,6.83,2.33,6.8-.73,2.04-3.36,2.61-4.97,1.01-1.38-1.42-.49-3.88-.23-6.49.7-5.45-2.49-8.44-7.14-8.39-3.21,0-6.2,2.17-7.04,6.18-.53,2.95-.35,6.86-.1,9.42l.44,4.4.09.92c1.43-2.31,3.74-3.99,6.6-4.38,5.32-.63,7.98,3.24,6.8,5.95-.33.86-1.46,2.01-2.39,2,1.28-3.75-2.95-5.71-6.43-4.33-6.98,2.66-3.72,13.61,1.15,12.61-.27,2.51-3.01,1.96-4.5.55.7,7.07.6,19.59,10.94,18.46,1.95-.19,4.04-1.02,5.66-2.42,1.81-1.53,2.93-3.81,2.17-6.32-.8-2.82-3.03-5.49-1.57-7.5,1.48-1.8,4.68-1.81,5.89-.07-3.86.69-1.7,5.75-1.15,7.15,1.21,2.78,3.54,4.41,4.88,7.48.55,1.39.67,2.62-.38,3.45Z" style="fill:#1d1d1b;"/><path d="M161.8,81.02c-1.6,3.23-4.89,2.15-6.08,1.42-.24.85-1.02,1.42-1.94,1.5s-1.89-.36-2.47-1.14c-.86.9-4.73,2.76-6.54-.4.54.27,1.06.33,1.67.18,1.21-.41,1.65-1.37,1.54-2.71-.27-2.04-2.05-6.24-2.85-8.44l-1.71-4.61-13.34,1.08c-.45,2.1-.79,4.3-1.14,6.39-.37,1.79-.74,3.57-.4,5.3.83,3.86,4.6,4.59,5.77,3.67-2.83,3.33-5.6,2.21-6.49,1.45-.55.87-1.53,1.47-2.46,1.54s-1.68-.38-1.95-1.18c-1.17.92-4.44,2.53-6.13-.44.89.75,5.11-.62,7.36-4.72.98-1.94,1.16-3.6,1.61-5.6l1.11-6.7c.46-3.24.66-8.52-1.4-9.7,2.56-1.55,4.47-7.38,5.03-10.63l1.46-8.79c.25-1.98-.79-5.93-3.2-6.35-.62-.05-1.22.2-1.61.54,2.01-3.26,5.08-2.27,6.18-1.53.45-.86,1.23-1.44,2.15-1.52s1.79.37,2.36,1.15c.96-.9,3.84-2.38,6.34.52-1.31-.93-5.05.1-3.44,5.96l14.33,39.43c1.9,4.29,5.29,5.36,6.24,4.35ZM142.47,64.1l-7.96-21.87-3.94,22.83,11.9-.96Z" style="fill:#1d1d1b;"/><path d="M183.47,82.37c-3.09.09-6.31-.23-9.05-1.2-.46.85-1.25,1.42-2.18,1.47-.92.06-1.78-.41-2.34-1.2-.98.88-3.87,2.4-6.32-.54,1.4.95,4.55.13,4.14-6.54-.16-2.57-.31-5.03-.47-7.6l-.11-1.85c-.2-3.18-1.26-8.79-3.71-9.98,2.28-1.48,2.65-7.17,2.46-10.36l-.23-3.7-.3-4.83c-.41-6.68-3.63-7.1-4.9-5.99,2.07-3.22,5.13-2.17,6.2-1.41.46-.85,1.25-1.42,2.18-1.47.92-.06,1.78.41,2.34,1.2,2.77-1.92,5.9-2.94,9.09-3.14,26.84-1.23,30.34,55.89,3.2,57.14ZM180.34,27.91c-4.82.4-7.11,5.18-6.84,9.49l1.75,28.46c.43,5.34.86,14.08,7.86,13.85,15.85-.56,13.04-52.98-2.77-51.8Z" style="fill:#1d1d1b;"/><path d="M256.6,76.2c-2.14,3.18-5.17,2.07-6.23,1.29-.48.84-1.28,1.39-2.21,1.43-.93.04-1.77-.44-2.21-1.25-.99.87-4.03,2.23-6.42-.77,1.38.97,4.54.23,4.27-6.46l-.14-3.39-.14-3.39-.77-18.92-.1-2.37-.23-5.66-8.37,19.61c3.6,9.84,2.77,22.24-8.57,24.77,4.71-3.28,4.43-10.07,3.4-15.08-2.05-9.81-8.44-19.95-14.15-28.47l.58,14.09.12.3-.09.31.63,15.43c.05,1.23,0,2.58.26,3.8.75,5.84,6.17,7.17,7.36,6.09-2.14,3.18-5.17,2.07-6.23,1.29-.48.84-1.28,1.39-2.21,1.43-.93.04-1.77-.44-2.32-1.24-.99.87-3.93,2.22-6.32-.77,1.38.97,7.17-1.01,6.9-7.7-.11-2.78-.23-5.55-.34-8.33-.13-3.19-1.08-8.81-3.5-10.05,2.31-1.43,2.8-7.12,2.67-10.31-.09-2.16-.17-4.22-.26-6.38-.04-.93.02-2.06-.13-3.08-.75-5.74-5.81-6.05-7.42-5.05,2.86-3.21,6.92-2.03,8.29-1.27.58-.85,1.59-1.4,2.83-1.46,1.34-.05,2.39.42,3.04,1.21,1.3-.88,5.26-2.38,8.37.58-1.26-.67-3.62-.47-4.87,1.85-1.34,2.42.22,5.35,1.78,8.17,3.12,5.64,6.31,10.66,8.81,16.43l5.83-13.63c.94-2.3,2.37-5.04,3-7.33.53-2.08.55-4.25-1.59-6.01-.95-.48-1.87-.34-2.47.1,2.14-3.18,5.28-1.97,6.34-1.19.38-.84,1.18-1.39,2.1-1.43s1.77.44,2.32,1.24c.99-.86,3.92-2.32,6.31.67-1.38-.97-4.54-.23-4.27,6.46l1.57,38.36c.27,6.69,3.49,7.17,4.78,6.09Z" style="fill:#1d1d1b;"/><path d="M301.97,75.32c-1.79,3.12-5.01,1.85-6.16,1.05-.29.83-1.11,1.36-2.03,1.38-.93.02-1.86-.48-2.39-1.29-.91.84-4.89,2.46-6.5-.8.52.3,1.04.39,1.65.28,1.23-.33,1.73-1.27,1.7-2.61-.14-2.06-1.67-6.35-2.33-8.6l-1.43-4.71-13.38.26c-.58,2.07-1.05,4.24-1.52,6.31-.48,1.76-.96,3.52-.72,5.26.59,3.9,4.32,4.86,5.54,4.01-3.03,3.15-5.73,1.86-6.57,1.06-.6.84-1.62,1.37-2.55,1.39-.93.02-1.66-.48-1.88-1.3-1.22.85-4.59,2.25-6.09-.81.84.81,5.14-.31,7.64-4.27,1.1-1.88,1.37-3.53,1.95-5.5l1.52-6.62c.66-3.2,1.17-8.46-.81-9.76,2.65-1.39,4.9-7.1,5.66-10.3l1.99-8.69c.37-1.96-.43-5.96-2.81-6.53-.62-.09-1.23.13-1.64.44,2.2-3.13,5.21-1.96,6.26-1.15.5-.83,1.31-1.36,2.24-1.38.93-.02,1.76.48,2.29,1.29,1.01-.84,3.97-2.14,6.3.91-1.25-1-5.05-.21-3.8,5.74l11.91,40.22c1.63,4.39,4.95,5.67,5.96,4.72ZM283.71,57.25l-6.62-22.31-5.32,22.55,11.94-.24Z" style="fill:#1d1d1b;"/><path d="M342.62,24.33c-1.34-1.03-7.2.83-7.19,7.52l.05,30.57c.73,4.22.32,8.23-2.14,11.94-1.44,2.27-3.91,3.92-7.4,4.54,3.6-2.48,3.8-7.11,3.17-11.12-1.77-11.32-12.6-25-19.82-34.97l.02,16.26.1.31-.1.31.03,18.22c0,6.69,5.88,8.43,7.22,7.4-2.26,3.09-5.25,1.86-6.28,1.04-.51.82-1.34,1.34-2.26,1.34-.93,0-1.75-.51-2.27-1.33-1.03.83-4.01,2.06-6.28-1.02,1.34,1.03,7.2-.73,7.19-7.42v-3.29s0-2.37,0-2.37v-2.68c0-3.19-.74-8.85-3.11-10.19,2.37-1.34,3.08-7,3.07-10.2v-4.22c0-1.65.09-3.5-.01-5.04-.42-5.97-5.57-6.48-7.21-5.55,2.98-3.09,7-1.76,8.34-.94.62-.82,1.65-1.34,2.88-1.34,1.34,0,2.37.51,2.99,1.33,1.34-.83,5.35-2.17,8.34.91-.93-.51-2.47-.61-3.81.31-2.36,1.75-1.12,5.15,1.66,9.16,3.71,5.24,9.49,12.65,13,20.36l-.03-22.34c-.01-6.69-5.88-8.53-7.22-7.5,2.26-3.09,5.35-1.76,6.38-.94.41-.82,1.23-1.34,2.16-1.34,1.03,0,1.85.51,2.27,1.33,1.03-.83,4.01-2.17,6.28.92Z" style="fill:#1d1d1b;"/><path d="M374.12,62.64c-.17,11.42-8.78,15.31-17.12,15.49-10.4.25-18.23-6.25-16.1-17.23,1.91-10.37,14.28-11.31,17.47-4.67-12.67-6.16-14.61,19.64-1.63,19.33,4.53-.14,9.52-3.56,8.92-11.39-.34-4.64-2.56-7.86-5.5-10.79-4.06-3.87-9.52-3.85-9.52-3.85,2.09-2.23-.33-5.05-.33-5.05-2.12-2.5-3.83-5.31-4.29-9.02-1.12-7.84,4.55-14.86,13.7-14.2,0,0,4.73.59,5.82,2.97,0,0,3.17-5.41,7.96-1.94,0,0-4.11-.37-4.39,4.05-.27,4.42.15,10.5-5.3,10.21,0,0,2.73-3.77.75-8.64-.89-2.07-2.63-3.03-4.58-3.26-5.65-.5-8.1,4.51-6.62,8.96,3.44,10.76,21.01,13.19,20.76,29.04Z" style="fill:#1d1d1b;"/><path d="M452.31,70.89c-.87,9.96-8.23,21.98-17.41,26.61-5.27,2.64-11.6,3.48-17.43,2.6-4.19-.71-7.63-2.1-10.63-4.2-1.62,1.57-3.54,2.93-5.62,3.55-3.56,1.17-9.08.3-9.81-3.96-.42-2.08.81-4.19,3.07-4.08,2.37,0,3.31,2.01,2.92,3.74-.39,1.73-1.76,2.5-3.29,2.01,1.58,1.41,4.58,1.24,6.27.39,1.69-.85,2.89-2.34,3.88-3.74-12.63-12.12-9.87-34.05,6.32-40.93-.43-1.87-1.07-3.55-2.17-4.22,2.43-1.23,3.41-6.85,3.55-10.04l.1-2.16c-2.48,4.63-10.47,3.64-12.75-2.75,0,0-3.34.98-5.48-1.9-1.75-2.35-1.78-6.06-1-9.53,3.66-16.83,23.11-22.84,36.1-18.53,17.15,5.74,17.56,28.12,2.06,35.65,15.65,2.58,22.69,17.43,21.32,31.49ZM412.32,31.02l.06-1.34c.03-.72.19-4.22.12-4.84.03-.72.08-1.85-.07-2.89-.4-2.49-2.22-3.19-4.07-1.12.4-4.21,3.73-4.98,5.92-3.33-.06-3.2,3.81-4.46,5.16-2.34,1.17-3.04,6.81-4.74,8.54.29-2.38-1.96-6.21.64-6.55,7.94l-.06,1.34-.25,5.35-.43,9.36c5.07-.38,8.48-2.91,10.54-7.24.9-1.71,1.52-3.95,1.34-6.74-.42-6.61-4.14-6.27-4.14-6.27,2.84-1.31,5.65.47,6.86,3.2.5-6.47-1.87-12.97-7.93-15.62-10.91-4.83-23.65,3.34-26.1,16.21-.93,4.59-.56,7.7.27,9.7,1.67,4.1,6.46,5.04,7.27.95.29-1.84-1.16-3.87-3.58-2.74,2.09-2.89,5.79-2.62,7.11.12ZM410.38,72.87l.54-11.72c-9.68,4.29-12.14,19.64-4.54,29.06,2.64-5.75,3.8-13.12,4-17.33ZM427.37,79.94s3.32,3.97,9.19-.3c8.53-6.1,8.52-19.29,4.07-27.94-3.21-6.33-8.69-10.5-16.32-10.23-1.24.15-2.38.3-3.73.34l-.1,2.16-.22,4.83-.02.41-.08,1.75c1.03-.06,1.95.09,2.88.24,6.24,1.01,10.67,5.54,8.81,9.99,0,0,4,2.66,2.11,7.93-1.53,4.05-5.89,4.78-8.17,2.92-2.19-1.75-1.94-6.99,1.87-6.92,2.27-.1,3.4,2.32,2.5,3.93-.11.2-.22.4-.34.6,1.36-.45,1.85-2.18,1.82-3.73-.25-3.51-4.27-8.03-11.81-7.55l-.7,15.22c-.07,1.54-.45,5.23.07,7.53.68,3.02,3.68,2.85,3.69.48,1.73,2.66-1.84,6.41-5.43,3.77.16,3.2-3.81,4.46-5.16,2.34-.7,1.72-1.93,3.83-2.92,5.33,2.19,1.75,5.01,3.12,8.28,3.78,4.9.95,9.68.24,13.82-2.56,2.02-1.35,3.75-3.02,5.28-4.91.4.33,1,.56,1.62.59,1.65.08,3.04-1.2,3.12-2.84.08-1.64-1.2-3.04-2.84-3.12s-3.04,1.2-3.12,2.84c-.01.31-.02.51.07.72-4.02-.08-8.24-2.34-8.2-7.59Z" style="fill:#1d1d1b;"/><path d="M495.76,82.19c-2.09,3.15-6.6,2.72-7.8.88-2.84.72-4.84-.15-6.27-1.8-4.65-5.6.32-18.55-3.71-22.77-2.68,0-5.2-.9-7.12-2.79-.67-.67-1.24-1.33-1.7-2.19l-1.48,20.33c-.49,6.67,2.65,7.52,4.06,6.59-2.48,2.92-5.36,1.36-6.33.47-.57.78-1.43,1.24-2.36,1.17-.92-.07-1.71-.64-2.16-1.5-1.09.75-4.16,1.86-6.2-1.38,1.26,1.12,4.49.74,4.97-5.93.23-3.18.46-6.26.69-9.45.23-3.18-.07-8.88-2.34-10.39,2.46-1.16,3.59-6.76,3.82-9.94.05-.72.11-1.54.17-2.26l.46-6.26c.49-6.67-2.65-7.52-4.06-6.59,2.48-2.92,5.37-1.47,6.34-.57.57-.78,1.43-1.24,2.36-1.17.92.07,1.71.64,2.16,1.5,2.58-1.46,5.62-2.07,8.71-1.94,2.36.17,4.38.73,6.18,1.59,11.05,5.55,9.8,24.04-.7,29.36-.64.26-1.17.53-1.92.79,8.81,5.18,4.08,20.42,10.53,23.99,1.49.83,3.15.64,3.7.27ZM481.09,52.74c4.51-6.69,5.17-22.74-3.12-23.66-7.18-.63-7.76,10.17-8.13,15.2.67-.67,1.53-1.23,2.48-1.47,2.43-.75,5.13.48,5.71,3.82-2.66-1.74-5.03,1.08-5.24,3.95-.58,5.12,4.95,7.17,8.31,2.15Z" style="fill:#1d1d1b;"/><path d="M541.97,35.42c-1.13-1.14-7.04.05-7.86,6.49-.04.41-.09.92-.13,1.33l-2.29,24.08-.33,3.48c-.98,10.25-6.2,16.26-15.73,15.36-12.19-1.16-16.29-8.06-15.32-18.31l.1-1.02c.3-3.18.12-8.88-2.11-10.44,2.48-1.11,3.74-6.67,4.04-9.85l.16-1.64.24-2.56.41-4.3c.63-6.66-2.48-7.58-3.91-6.68,2.55-2.86,5.39-1.24,6.34-.33.59-.77,1.46-1.21,2.38-1.12.92.09,1.69.68,2.13,1.55,1.1-.72,4.2-1.77,6.16,1.52-1.23-1.15-4.47-.84-5.1,5.82l-.62,6.56-2.06,21.62c-.32,3.38-.44,6.78.69,10.09.82,2.25,2.2,4.04,4.57,5.19,1.59.67,3.63.97,5.39.93,4.69-.38,7.38-3.64,8.75-8.27.77-2.62.87-4.78,1.12-7.44l1.35-14.14.55-5.74.54-5.63c.63-6.66-5.03-9.06-6.46-8.16,2.55-2.86,5.49-1.23,6.44-.32.49-.78,1.36-1.21,2.28-1.13,1.02.1,1.79.69,2.13,1.55,1.1-.72,4.2-1.77,6.16,1.52Z" style="fill:#1d1d1b;"/><path d="M568.61,76.58c-1.31,11.35-10.25,14.36-18.57,13.71-10.38-.78-17.52-8.03-14.31-18.74,2.93-10.13,15.33-9.84,17.85-2.92-12-7.39-16.49,18.1-3.54,19.07,4.52.31,9.83-2.6,10.01-10.45.12-4.65-1.76-8.08-4.4-11.28-3.65-4.25-9.08-4.78-9.08-4.78,2.3-2.01.17-5.06.17-5.06-1.86-2.7-3.29-5.66-3.37-9.4-.33-7.91,6-14.33,15.04-12.77,0,0,4.64,1.05,5.5,3.53,0,0,3.69-5.07,8.11-1.14,0,0-4.05-.78-4.77,3.59s-.9,10.46-6.29,9.64c0,0,3.09-3.48,1.6-8.52-.68-2.15-2.32-3.27-4.24-3.7-5.58-1.06-8.51,3.68-7.48,8.26,2.35,11.05,19.59,15.21,17.78,30.95Z" style="fill:#1d1d1b;"/><path d="M608.67,95.34c-2.67,2.75-5.44,1.02-6.35.06-.62.75-1.51,1.14-2.43,1.02-.92-.13-1.66-.75-2.06-1.63-1.13.67-4.27,1.59-6.09-1.78,1.19,1.2,4.43,1.03,5.34-5.6l2.93-21.21c-.64.85-2.15,1.99-3.24,1.63,2.71-3.05-1.23-7.65-6.07-6.45-8.26,1.87-7.66,14.11-2.07,14.26-1.01,2.77-3.84,1.44-5.13-.5l-1.41,10.2c-.91,6.63,2.16,7.67,3.63,6.84-2.67,2.75-5.44,1.02-6.35.06-.62.75-1.51,1.14-2.43,1.02-.92-.13-1.66-.75-2.06-1.63-1.13.67-4.27,1.59-6.09-1.78,1.18,1.2,4.43,1.03,5.34-5.6.44-3.16.86-6.22,1.29-9.38.44-3.16.5-8.87-1.67-10.52,2.53-1,4.02-6.51,4.45-9.67.39-2.85.79-5.71,1.17-8.46.92-6.63-2.16-7.68-3.63-6.84,2.67-2.75,5.45-1.12,6.36-.16.62-.75,1.51-1.14,2.43-1.02.92.13,1.66.75,2.06,1.64,1.13-.68,4.26-1.49,6.08,1.88-1.19-1.2-4.43-1.03-5.34,5.6l-1.9,13.76c2.17-2.19,5.27-3.53,8.54-3.18,3.79.42,5.89,2.48,6.53,4.64l1.82-13.15c.91-6.63-2.16-7.67-3.63-6.84,2.67-2.75,5.45-1.12,6.36-.16.62-.75,1.51-1.14,2.43-1.02.92.13,1.66.75,2.06,1.63,1.13-.67,4.26-1.49,6.08,1.88-1.18-1.2-4.43-1.03-5.34,5.6l-5.25,38.03c-.92,6.63,2.16,7.68,3.63,6.84Z" style="fill:#1d1d1b;"/><path d="M60.35,101.66c-5.09,7.38-13.75,11.9-22.77,12-4.25.02-7.88-.77-11.19-2.33-1.33,1.83-2.98,3.49-4.94,4.46-3.31,1.76-8.9,1.85-10.34-2.22-.77-1.98.08-4.26,2.33-4.55,2.34-.4,3.6,1.41,3.51,3.19-.09,1.77-1.31,2.76-2.9,2.54,1.8,1.12,4.72.44,6.24-.68s2.45-2.8,3.19-4.34c-14.51-9.79-15.53-31.87-.75-41.4-.74-1.77-1.66-3.32-2.86-3.79,2.18-1.62,2.19-7.33,1.79-10.5l-.27-2.14c-1.66,4.98-9.7,5.37-13.04-.54,0,0-3.23,1.55-5.72-.94C.52,48.39-.15,44.74.03,41.19c.59-14.29,13.18-23.03,26.37-24.59,44.86-5.44,52.12,58.8,33.95,85.05ZM56.23,59.95c1.14-.87,1.72-2.81,1.97-4.92.43-4-.22-6.72-1.43-10.51-4.7-15.07-14.69-26.89-29.92-25.07-10.83,1.36-18.2,10.38-18.42,20.99-.14,4.69.76,7.69,1.92,9.51,2.34,3.75,7.23,3.86,7.33-.3-.03-1.86-1.8-3.61-4-2.09,1.57-3.21,5.26-3.57,7.02-1.09-.24-1.94-.89-7.05-1.44-8.95-.82-2.39-2.73-2.77-4.2-.41-.32-4.21,2.83-5.54,5.27-4.29-.6-3.14,3-5.05,4.68-3.18.64-3.19,5.91-5.83,8.46-1.17-2.68-1.53-6.01,1.69-5.1,8.94l.84,6.64,2.61,20.73c1.01-.23,1.94-.24,2.87-.26,6.42-.08,11.46,3.64,10.39,8.34,0,0,4.39,1.94,3.43,7.45-.81,4.25-4.99,5.71-7.55,4.27-2.45-1.35-3.11-6.56.66-7.14,2.22-.49,3.74,1.71,3.13,3.44-.08.22-.15.43-.23.65,1.26-.68,1.45-2.47,1.16-3.98-.95-3.41-5.57-7.18-12.93-5.43l1.9,15.11c.19,1.53.45,5.23,1.35,7.4,1.19,2.86,4.11,2.18,3.71-.16,2.16,2.32-.72,6.63-4.71,4.64.71,3.13-3,5.05-4.68,3.18-.39,1.81-1.25,4.1-1.97,5.75,2.45,1.35,5.47,2.22,8.8,2.32,5.52.13,9.84-1.76,13.18-4.88,1.76-1.67,3.18-3.62,4.36-5.74.45.25,1.09.38,1.7.3,1.63-.21,2.79-1.7,2.59-3.33-.21-1.63-1.7-2.79-3.33-2.59-1.63.21-2.79,1.7-2.59,3.33.04.31.06.51.19.7-3.97.6-8.52-.9-9.38-6.08,0,0,3.95,3.34,9-1.86,2.1-2.24,3.76-5.56,4.92-9.54,1.53-5.17,3.09-13.36.6-18.33-.56-1.17-1.29-2.02-2.17-2.42ZM25.95,88.04l-1.47-11.64c-8.8,5.88-8.61,21.42.49,29.4,1.62-6.12,1.51-13.57.98-17.76Z" style="fill:#ba9d7a;"/><path d="M114.53,86.1c-.42-2.13-2.91-3.23-5.19-2.28-3.37,1.47-7.71,3.56-13.3,3.6-1.76-.03-6.04-.43-7.71-1.61-.43.87-1.2,1.46-2.12,1.56s-1.79-.34-2.39-1.11c-.94.92-3.78,2.55-6.34-.3,1.43.89,4.55-.04,3.89-6.7l-.15-1.54-.53-5.33-.25-2.56c-.32-3.17-1.59-8.74-4.08-9.83,2.22-1.57,2.38-7.27,2.06-10.45l-.35-3.48-.5-5.02c-.66-6.66-3.9-6.96-5.13-5.8,1.95-3.3,5.04-2.36,6.15-1.64.43-.87,1.2-1.46,2.12-1.56s1.79.34,2.39,1.11c.48-.36,1.06-.83,1.64-1.2,6.67-3.66,12.55-1.76,16.58-.72,2.13.62,3.93-1.01,3.93-3.18,1.11.72,1.23,1.95,1.05,3.31-.6,3.37-2.26,5.4-2.8,8.24-.15,1.57-1.08,6.83,2.33,6.8-.73,2.04-3.36,2.61-4.97,1.01-1.38-1.42-.49-3.88-.23-6.49.7-5.45-2.49-8.44-7.14-8.39-3.21,0-6.2,2.17-7.04,6.18-.53,2.95-.35,6.86-.1,9.42l.44,4.4.09.92c1.43-2.31,3.74-3.99,6.6-4.38,5.32-.63,7.98,3.24,6.8,5.95-.33.86-1.46,2.01-2.39,2,1.28-3.75-2.95-5.71-6.43-4.33-6.98,2.66-3.72,13.61,1.15,12.61-.27,2.51-3.01,1.96-4.5.55.7,7.07.6,19.59,10.94,18.46,1.95-.19,4.04-1.02,5.66-2.42,1.81-1.53,2.93-3.81,2.17-6.32-.8-2.82-3.03-5.49-1.57-7.5,1.48-1.8,4.68-1.81,5.89-.07-3.86.69-1.7,5.75-1.15,7.15,1.21,2.78,3.54,4.41,4.88,7.48.55,1.39.67,2.62-.38,3.45Z" style="fill:#ba9d7a;"/><path d="M159.39,78.61c-1.6,3.23-4.89,2.15-6.08,1.42-.24.85-1.02,1.42-1.94,1.5s-1.89-.36-2.47-1.14c-.86.9-4.73,2.76-6.54-.4.54.27,1.06.33,1.67.18,1.21-.41,1.65-1.37,1.54-2.71-.27-2.04-2.05-6.24-2.85-8.44l-1.71-4.61-13.34,1.08c-.45,2.1-.79,4.3-1.14,6.39-.37,1.79-.74,3.57-.4,5.3.83,3.86,4.6,4.59,5.77,3.67-2.83,3.33-5.6,2.21-6.49,1.45-.55.87-1.53,1.47-2.46,1.54s-1.68-.38-1.95-1.18c-1.17.92-4.44,2.53-6.13-.44.89.75,5.11-.62,7.36-4.72.98-1.94,1.16-3.6,1.61-5.6l1.11-6.7c.46-3.24.66-8.52-1.4-9.7,2.56-1.55,4.47-7.38,5.03-10.63l1.46-8.79c.25-1.98-.79-5.93-3.2-6.35-.62-.05-1.22.2-1.61.54,2.01-3.26,5.08-2.27,6.18-1.53.45-.86,1.23-1.44,2.15-1.52s1.79.37,2.36,1.15c.96-.9,3.84-2.38,6.34.52-1.31-.93-5.05.1-3.44,5.96l14.33,39.43c1.9,4.29,5.29,5.36,6.24,4.35ZM140.06,61.69l-7.96-21.87-3.94,22.83,11.9-.96Z" style="fill:#ba9d7a;"/><path d="M181.06,79.96c-3.09.09-6.31-.23-9.05-1.2-.46.85-1.25,1.42-2.18,1.47-.92.06-1.78-.41-2.34-1.2-.98.88-3.87,2.4-6.32-.54,1.4.95,4.55.13,4.14-6.54-.16-2.57-.31-5.03-.47-7.6l-.11-1.85c-.2-3.18-1.26-8.79-3.71-9.98,2.28-1.48,2.65-7.17,2.46-10.36l-.23-3.7-.3-4.83c-.41-6.68-3.63-7.1-4.9-5.99,2.07-3.22,5.13-2.17,6.2-1.41.46-.85,1.25-1.42,2.18-1.47.92-.06,1.78.41,2.34,1.2,2.77-1.92,5.9-2.94,9.09-3.14,26.84-1.23,30.34,55.89,3.2,57.14ZM177.93,25.5c-4.82.4-7.11,5.18-6.84,9.49l1.75,28.46c.43,5.34.86,14.08,7.86,13.85,15.85-.56,13.04-52.98-2.77-51.8Z" style="fill:#ba9d7a;"/><path d="M254.19,73.79c-2.14,3.18-5.17,2.07-6.23,1.29-.48.84-1.28,1.39-2.21,1.43-.93.04-1.77-.44-2.21-1.25-.99.87-4.03,2.23-6.42-.77,1.38.97,4.54.23,4.27-6.46l-.14-3.39-.14-3.39-.77-18.92-.1-2.37-.23-5.66-8.37,19.61c3.6,9.84,2.77,22.24-8.57,24.77,4.71-3.28,4.43-10.07,3.4-15.08-2.05-9.81-8.44-19.95-14.15-28.47l.58,14.09.12.3-.09.31.63,15.43c.05,1.23,0,2.58.26,3.8.75,5.84,6.17,7.17,7.36,6.09-2.14,3.18-5.17,2.07-6.23,1.29-.48.84-1.28,1.39-2.21,1.43-.93.04-1.77-.44-2.32-1.24-.99.87-3.93,2.22-6.32-.77,1.38.97,7.17-1.01,6.9-7.7-.11-2.78-.23-5.55-.34-8.33-.13-3.19-1.08-8.81-3.5-10.05,2.31-1.43,2.8-7.12,2.67-10.31-.09-2.16-.17-4.22-.26-6.38-.04-.93.02-2.06-.13-3.08-.75-5.74-5.81-6.05-7.42-5.05,2.86-3.21,6.92-2.03,8.29-1.27.58-.85,1.59-1.4,2.83-1.46,1.34-.05,2.39.42,3.04,1.21,1.3-.88,5.26-2.38,8.37.58-1.26-.67-3.62-.47-4.87,1.85-1.34,2.42.22,5.35,1.78,8.17,3.12,5.64,6.31,10.66,8.81,16.43l5.83-13.63c.94-2.3,2.37-5.04,3-7.33.53-2.08.55-4.25-1.59-6.01-.95-.48-1.87-.34-2.47.1,2.14-3.18,5.28-1.97,6.34-1.19.38-.84,1.18-1.39,2.1-1.43s1.77.44,2.32,1.24c.99-.86,3.92-2.32,6.31.67-1.38-.97-4.54-.23-4.27,6.46l1.57,38.36c.27,6.69,3.49,7.17,4.78,6.09Z" style="fill:#ba9d7a;"/><path d="M299.56,72.91c-1.79,3.12-5.01,1.85-6.16,1.05-.29.83-1.11,1.36-2.03,1.38-.93.02-1.86-.48-2.39-1.29-.91.84-4.89,2.46-6.5-.8.52.3,1.04.39,1.65.28,1.23-.33,1.73-1.27,1.7-2.61-.14-2.06-1.67-6.35-2.33-8.6l-1.43-4.71-13.38.26c-.58,2.07-1.05,4.24-1.52,6.31-.48,1.76-.96,3.52-.72,5.26.59,3.9,4.32,4.86,5.54,4.01-3.03,3.15-5.73,1.86-6.57,1.06-.6.84-1.62,1.37-2.55,1.39-.93.02-1.66-.48-1.88-1.3-1.22.85-4.59,2.25-6.09-.81.84.81,5.14-.31,7.64-4.27,1.1-1.88,1.37-3.53,1.95-5.5l1.52-6.62c.66-3.2,1.17-8.46-.81-9.76,2.65-1.39,4.9-7.1,5.66-10.3l1.99-8.69c.37-1.96-.43-5.96-2.81-6.53-.62-.09-1.23.13-1.64.44,2.2-3.13,5.21-1.96,6.26-1.15.5-.83,1.31-1.36,2.24-1.38.93-.02,1.76.48,2.29,1.29,1.01-.84,3.97-2.14,6.3.91-1.25-1-5.05-.21-3.8,5.74l11.91,40.22c1.63,4.39,4.95,5.67,5.96,4.72ZM281.3,54.84l-6.62-22.31-5.32,22.55,11.94-.24Z" style="fill:#ba9d7a;"/><path d="M340.21,21.92c-1.34-1.03-7.2.83-7.19,7.52l.05,30.57c.73,4.22.32,8.23-2.14,11.94-1.44,2.27-3.91,3.92-7.4,4.54,3.6-2.48,3.8-7.11,3.17-11.12-1.77-11.32-12.6-25-19.82-34.97l.02,16.26.1.31-.1.31.03,18.22c0,6.69,5.88,8.43,7.22,7.4-2.26,3.09-5.25,1.86-6.28,1.04-.51.82-1.34,1.34-2.26,1.34-.93,0-1.75-.51-2.27-1.33-1.03.83-4.01,2.06-6.28-1.02,1.34,1.03,7.2-.73,7.19-7.42v-3.29s0-2.37,0-2.37v-2.68c0-3.19-.74-8.85-3.11-10.19,2.37-1.34,3.08-7,3.07-10.2v-4.22c0-1.65.09-3.5-.01-5.04-.42-5.97-5.57-6.48-7.21-5.55,2.98-3.09,7-1.76,8.34-.94.62-.82,1.65-1.34,2.88-1.34,1.34,0,2.37.51,2.99,1.33,1.34-.83,5.35-2.17,8.34.91-.93-.51-2.47-.61-3.81.31-2.36,1.75-1.12,5.15,1.66,9.16,3.71,5.24,9.49,12.65,13,20.36l-.03-22.34c-.01-6.69-5.88-8.53-7.22-7.5,2.26-3.09,5.35-1.76,6.38-.94.41-.82,1.23-1.34,2.16-1.34,1.03,0,1.85.51,2.27,1.33,1.03-.83,4.01-2.17,6.28.92Z" style="fill:#ba9d7a;"/><path d="M371.71,60.23c-.17,11.42-8.78,15.31-17.12,15.49-10.4.25-18.23-6.25-16.1-17.23,1.91-10.37,14.28-11.31,17.47-4.67-12.67-6.16-14.61,19.64-1.63,19.33,4.53-.14,9.52-3.56,8.92-11.39-.34-4.64-2.56-7.86-5.5-10.79-4.06-3.87-9.52-3.85-9.52-3.85,2.09-2.23-.33-5.05-.33-5.05-2.12-2.5-3.83-5.31-4.29-9.02-1.12-7.84,4.55-14.86,13.7-14.2,0,0,4.73.59,5.82,2.97,0,0,3.17-5.41,7.96-1.94,0,0-4.11-.37-4.39,4.05-.27,4.42.15,10.5-5.3,10.21,0,0,2.73-3.77.75-8.64-.89-2.07-2.63-3.03-4.58-3.26-5.65-.5-8.1,4.51-6.62,8.96,3.44,10.76,21.01,13.19,20.76,29.04Z" style="fill:#ba9d7a;"/><path d="M449.9,68.48c-.87,9.96-8.23,21.98-17.41,26.61-5.27,2.64-11.6,3.48-17.43,2.6-4.19-.71-7.63-2.1-10.63-4.2-1.62,1.57-3.54,2.93-5.62,3.55-3.56,1.17-9.08.3-9.81-3.96-.42-2.08.81-4.19,3.07-4.08,2.37,0,3.31,2.01,2.92,3.74-.39,1.73-1.76,2.5-3.29,2.01,1.58,1.41,4.58,1.24,6.27.39,1.69-.85,2.89-2.34,3.88-3.74-12.63-12.12-9.87-34.05,6.32-40.93-.43-1.87-1.07-3.55-2.17-4.22,2.43-1.23,3.41-6.85,3.55-10.04l.1-2.16c-2.48,4.63-10.47,3.64-12.75-2.75,0,0-3.34.98-5.48-1.9-1.75-2.35-1.78-6.06-1-9.53,3.66-16.83,23.11-22.84,36.1-18.53,17.15,5.74,17.56,28.12,2.06,35.65,15.65,2.58,22.69,17.43,21.32,31.49ZM409.91,28.61l.06-1.34c.03-.72.19-4.22.12-4.84.03-.72.08-1.85-.07-2.89-.4-2.49-2.22-3.19-4.07-1.12.4-4.21,3.73-4.98,5.92-3.33-.06-3.2,3.81-4.46,5.16-2.34,1.17-3.04,6.81-4.74,8.54.29-2.38-1.96-6.21.64-6.55,7.94l-.06,1.34-.25,5.35-.43,9.36c5.07-.38,8.48-2.91,10.54-7.24.9-1.71,1.52-3.95,1.34-6.74-.42-6.61-4.14-6.27-4.14-6.27,2.84-1.31,5.65.47,6.86,3.2.5-6.47-1.87-12.97-7.93-15.62-10.91-4.83-23.65,3.34-26.1,16.21-.93,4.59-.56,7.7.27,9.7,1.67,4.1,6.46,5.04,7.27.95.29-1.84-1.16-3.87-3.58-2.74,2.09-2.89,5.79-2.62,7.11.12ZM407.97,70.46l.54-11.72c-9.68,4.29-12.14,19.64-4.54,29.06,2.64-5.75,3.8-13.12,4-17.33ZM424.96,77.53s3.32,3.97,9.19-.3c8.53-6.1,8.52-19.29,4.07-27.94-3.21-6.33-8.69-10.5-16.32-10.23-1.24.15-2.38.3-3.73.34l-.1,2.16-.22,4.83-.02.41-.08,1.75c1.03-.06,1.95.09,2.88.24,6.24,1.01,10.67,5.54,8.81,9.99,0,0,4,2.66,2.11,7.93-1.53,4.05-5.89,4.78-8.17,2.92-2.19-1.75-1.94-6.99,1.87-6.92,2.27-.1,3.4,2.32,2.5,3.93-.11.2-.22.4-.34.6,1.36-.45,1.85-2.18,1.82-3.73-.25-3.51-4.27-8.03-11.81-7.55l-.7,15.22c-.07,1.54-.45,5.23.07,7.53.68,3.02,3.68,2.85,3.69.48,1.73,2.66-1.84,6.41-5.43,3.77.16,3.2-3.81,4.46-5.16,2.34-.7,1.72-1.93,3.83-2.92,5.33,2.19,1.75,5.01,3.12,8.28,3.78,4.9.95,9.68.24,13.82-2.56,2.02-1.35,3.75-3.02,5.28-4.91.4.33,1,.56,1.62.59,1.65.08,3.04-1.2,3.12-2.84.08-1.64-1.2-3.04-2.84-3.12s-3.04,1.2-3.12,2.84c-.01.31-.02.51.07.72-4.02-.08-8.24-2.34-8.2-7.59Z" style="fill:#ba9d7a;"/><path d="M493.35,79.79c-2.09,3.15-6.6,2.72-7.8.88-2.84.72-4.84-.15-6.27-1.8-4.65-5.6.32-18.55-3.71-22.77-2.68,0-5.2-.9-7.12-2.79-.67-.67-1.24-1.33-1.7-2.19l-1.48,20.33c-.49,6.67,2.65,7.52,4.06,6.59-2.48,2.92-5.36,1.36-6.33.47-.57.78-1.43,1.24-2.36,1.17-.92-.07-1.71-.64-2.16-1.5-1.09.75-4.16,1.86-6.2-1.38,1.26,1.12,4.49.74,4.97-5.93.23-3.18.46-6.26.69-9.45.23-3.18-.07-8.88-2.34-10.39,2.46-1.16,3.59-6.76,3.82-9.94.05-.72.11-1.54.17-2.26l.46-6.26c.49-6.67-2.65-7.52-4.06-6.59,2.48-2.92,5.37-1.47,6.34-.57.57-.78,1.43-1.24,2.36-1.17.92.07,1.71.64,2.16,1.5,2.58-1.46,5.62-2.07,8.71-1.94,2.36.17,4.38.73,6.18,1.59,11.05,5.55,9.8,24.04-.7,29.36-.64.26-1.17.53-1.92.79,8.81,5.18,4.08,20.42,10.53,23.99,1.49.83,3.15.64,3.7.27ZM478.68,50.33c4.51-6.69,5.17-22.74-3.12-23.66-7.18-.63-7.76,10.17-8.13,15.2.67-.67,1.53-1.23,2.48-1.47,2.43-.75,5.13.48,5.71,3.82-2.66-1.74-5.03,1.08-5.24,3.95-.58,5.12,4.95,7.17,8.31,2.15Z" style="fill:#ba9d7a;"/><path d="M539.57,33.01c-1.13-1.14-7.04.05-7.86,6.49-.04.41-.09.92-.13,1.33l-2.29,24.08-.33,3.48c-.98,10.25-6.2,16.26-15.73,15.36-12.19-1.16-16.29-8.06-15.32-18.31l.1-1.02c.3-3.18.12-8.88-2.11-10.44,2.48-1.11,3.74-6.67,4.04-9.85l.16-1.64.24-2.56.41-4.3c.63-6.66-2.48-7.58-3.91-6.68,2.55-2.86,5.39-1.24,6.34-.33.59-.77,1.46-1.21,2.38-1.12.92.09,1.69.68,2.13,1.55,1.1-.72,4.2-1.77,6.16,1.52-1.23-1.15-4.47-.84-5.1,5.82l-.62,6.56-2.06,21.62c-.32,3.38-.44,6.78.69,10.09.82,2.25,2.2,4.04,4.57,5.19,1.59.67,3.63.97,5.39.93,4.69-.38,7.38-3.64,8.75-8.27.77-2.62.87-4.78,1.12-7.44l1.35-14.14.55-5.74.54-5.63c.63-6.66-5.03-9.06-6.46-8.16,2.55-2.86,5.49-1.23,6.44-.32.49-.78,1.36-1.21,2.28-1.13,1.02.1,1.79.69,2.13,1.55,1.1-.72,4.2-1.77,6.16,1.52Z" style="fill:#ba9d7a;"/><path d="M566.2,74.17c-1.31,11.35-10.25,14.36-18.57,13.71-10.38-.78-17.52-8.03-14.31-18.74,2.93-10.13,15.33-9.84,17.85-2.92-12-7.39-16.49,18.1-3.54,19.07,4.52.31,9.83-2.6,10.01-10.45.12-4.65-1.76-8.08-4.4-11.28-3.65-4.25-9.08-4.78-9.08-4.78,2.3-2.01.17-5.06.17-5.06-1.86-2.7-3.29-5.66-3.37-9.4-.33-7.91,6-14.33,15.04-12.77,0,0,4.64,1.05,5.5,3.53,0,0,3.69-5.07,8.11-1.14,0,0-4.05-.78-4.77,3.59s-.9,10.46-6.29,9.64c0,0,3.09-3.48,1.6-8.52-.68-2.15-2.32-3.27-4.24-3.7-5.58-1.06-8.51,3.68-7.48,8.26,2.35,11.05,19.59,15.21,17.78,30.95Z" style="fill:#ba9d7a;"/><path d="M606.26,92.93c-2.67,2.75-5.44,1.02-6.35.06-.62.75-1.51,1.14-2.43,1.02-.92-.13-1.66-.75-2.06-1.63-1.13.67-4.27,1.59-6.09-1.78,1.19,1.2,4.43,1.03,5.34-5.6l2.93-21.21c-.64.85-2.15,1.99-3.24,1.63,2.71-3.05-1.23-7.65-6.07-6.45-8.26,1.87-7.66,14.11-2.07,14.26-1.01,2.77-3.84,1.44-5.13-.5l-1.41,10.2c-.91,6.63,2.16,7.67,3.63,6.84-2.67,2.75-5.44,1.02-6.35.06-.62.75-1.51,1.14-2.43,1.02-.92-.13-1.66-.75-2.06-1.63-1.13.67-4.27,1.59-6.09-1.78,1.18,1.2,4.43,1.03,5.34-5.6.44-3.16.86-6.22,1.29-9.38.44-3.16.5-8.87-1.67-10.52,2.53-1,4.02-6.51,4.45-9.67.39-2.85.79-5.71,1.17-8.46.92-6.63-2.16-7.68-3.63-6.84,2.67-2.75,5.45-1.12,6.36-.16.62-.75,1.51-1.14,2.43-1.02.92.13,1.66.75,2.06,1.64,1.13-.68,4.26-1.49,6.08,1.88-1.19-1.2-4.43-1.03-5.34,5.6l-1.9,13.76c2.17-2.19,5.27-3.53,8.54-3.18,3.79.42,5.89,2.48,6.53,4.64l1.82-13.15c.91-6.63-2.16-7.67-3.63-6.84,2.67-2.75,5.45-1.12,6.36-.16.62-.75,1.51-1.14,2.43-1.02.92.13,1.66.75,2.06,1.63,1.13-.67,4.26-1.49,6.08,1.88-1.18-1.2-4.43-1.03-5.34,5.6l-5.25,38.03c-.92,6.63,2.16,7.68,3.63,6.84Z" style="fill:#ba9d7a;"/></g></svg>